<?xml version="1.0" encoding="utf-8"?>
<!-- Generator: Adobe Illustrator 26.0.1, SVG Export Plug-In . SVG Version: 6.00 Build 0)  -->
<svg version="1.1" id="Layer_1" xmlns="http://www.w3.org/2000/svg" xmlns:xlink="http://www.w3.org/1999/xlink" x="0px" y="0px"
	 viewBox="0 0 150 150" style="enable-background:new 0 0 150 150;" xml:space="preserve">
<style type="text/css">
	.st0{fill:#28B24B;}
	.st1{opacity:0.8;fill:#FFFFFF;enable-background:new    ;}
	.st2{fill:none;stroke:#263238;stroke-width:0.25;stroke-miterlimit:10;}
	.st3{fill:#28B24B;stroke:#263238;stroke-width:0.25;stroke-miterlimit:10;}
	.st4{fill:#263238;stroke:#263238;stroke-width:0.25;stroke-linecap:round;stroke-linejoin:round;}
	.st5{fill:none;stroke:#6E6E6E;stroke-width:0.25;stroke-linecap:round;stroke-linejoin:round;}
	.st6{fill:#7D7D7D;stroke:#263238;stroke-width:0.25;stroke-linecap:round;stroke-linejoin:round;}
	.st7{fill:#28B24B;stroke:#263238;stroke-width:0.25;stroke-linecap:round;stroke-linejoin:round;}
	.st8{fill:#FFFFFF;stroke:#263238;stroke-width:0.25;stroke-linecap:round;stroke-linejoin:round;}
	.st9{fill:none;stroke:#263238;stroke-width:0.25;stroke-linecap:round;stroke-linejoin:round;}
	.st10{fill:#263238;}
	.st11{fill:#FFFFFF;}
	.st12{fill:#C7C7C7;}
	.st13{fill:#919191;}
</style>
<g id="freepik--background-simple--inject-164_00000093140140900592131530000006381905108519877513_">
	<path class="st0" d="M139.9,82.29c-4.52-14.79-16.16-26.63-29.93-32.87c-13.14-5.95-29.74-8.9-42.19,0.27
		c-8.19,6.04-12.84,15.71-20.34,22.47c-3.73,3.36-7.81,4.46-12.25,6.47c-10.81,4.9-19.86,14.36-20.61,26.84
		c-1.25,20.86,15.29,35.29,33.74,40.03c24.39,6.25,42.61,6.25,59.36-0.5c8.7-3.51,17.56-7.95,23.82-15.21
		c9.49-10.99,12.1-26.59,9.95-40.7C141.1,86.79,140.58,84.52,139.9,82.29z"/>
	<path class="st1" d="M139.9,82.29c-4.52-14.79-16.16-26.63-29.93-32.87c-13.14-5.95-29.74-8.9-42.19,0.27
		c-8.19,6.04-12.84,15.71-20.34,22.47c-3.73,3.36-7.81,4.46-12.25,6.47c-10.81,4.9-19.86,14.36-20.61,26.84
		c-1.25,20.86,15.29,35.29,33.74,40.03c24.39,6.25,42.61,6.25,59.36-0.5c8.7-3.51,17.56-7.95,23.82-15.21
		c9.49-10.99,12.1-26.59,9.95-40.7C141.1,86.79,140.58,84.52,139.9,82.29z"/>
</g>
<g id="freepik--Plants--inject-164_00000001649053243705898380000017348855643727782277_">
	<line class="st2" x1="14.23" y1="97.62" x2="18.96" y2="142.99"/>
	<line class="st2" x1="18.09" y1="134.12" x2="16.05" y2="132.04"/>
	<path class="st3" d="M16.7,132.72c-0.01-0.7-0.32-1.37-0.85-1.82c-0.55-0.49-3.45-1.71-3.73-0.69
		C11.83,131.31,14.8,133.5,16.7,132.72z"/>
	<line class="st2" x1="16.71" y1="132.72" x2="13.94" y2="131"/>
	<line class="st2" x1="18.48" y1="139.26" x2="16.59" y2="137.2"/>
	<path class="st3" d="M17.24,137.88c-0.01-0.7-0.32-1.37-0.85-1.82c-0.55-0.49-3.45-1.71-3.73-0.69
		C12.36,136.47,15.33,138.66,17.24,137.88z"/>
	<line class="st2" x1="17.24" y1="137.88" x2="14.48" y2="136.16"/>
	<line class="st2" x1="16.79" y1="121.52" x2="14.64" y2="119.25"/>
	<path class="st3" d="M15.39,120.13c-0.01-0.7-0.32-1.37-0.85-1.82c-0.55-0.49-3.45-1.71-3.73-0.69
		C10.51,118.72,13.48,120.91,15.39,120.13z"/>
	<line class="st2" x1="15.39" y1="120.13" x2="12.63" y2="118.41"/>
	<line class="st2" x1="17.21" y1="126.69" x2="15.28" y2="124.6"/>
	<path class="st3" d="M15.93,125.29c-0.01-0.7-0.32-1.37-0.85-1.82c-0.55-0.49-3.45-1.71-3.73-0.69
		C11.05,123.88,14.02,126.07,15.93,125.29z"/>
	<line class="st2" x1="15.93" y1="125.29" x2="13.17" y2="123.57"/>
	<line class="st2" x1="15.94" y1="113.14" x2="13.86" y2="111.06"/>
	<path class="st3" d="M14.52,111.74c-0.01-0.7-0.32-1.37-0.85-1.82c-0.55-0.49-3.45-1.71-3.72-0.69
		C9.64,110.34,12.61,112.52,14.52,111.74z"/>
	<line class="st2" x1="14.52" y1="111.74" x2="11.76" y2="110.02"/>
	<line class="st2" x1="14.96" y1="104.73" x2="12.99" y2="102.65"/>
	<path class="st3" d="M13.64,103.32c-0.01-0.7-0.32-1.36-0.85-1.82c-0.55-0.49-3.44-1.71-3.73-0.69
		C8.76,101.92,11.72,104.1,13.64,103.32z"/>
	<line class="st2" x1="13.64" y1="103.32" x2="10.88" y2="101.6"/>
	<line class="st2" x1="17.84" y1="131.25" x2="19.47" y2="128.59"/>
	<path class="st3" d="M18.97,129.39c-0.14-0.69,0.03-1.4,0.46-1.96c0.44-0.6,3.02-2.39,3.5-1.44
		C23.46,127.01,21,129.76,18.97,129.39z"/>
	<line class="st2" x1="18.97" y1="129.39" x2="21.46" y2="127.01"/>
	<line class="st2" x1="16.42" y1="117.67" x2="18.05" y2="115.01"/>
	<path class="st3" d="M17.56,115.81c-0.14-0.69,0.03-1.4,0.46-1.96c0.44-0.6,3.02-2.39,3.5-1.44
		C22.04,113.43,19.59,116.18,17.56,115.81z"/>
	<line class="st2" x1="17.56" y1="115.81" x2="20.04" y2="113.44"/>
	<line class="st2" x1="15.8" y1="111.71" x2="17.43" y2="109.04"/>
	<path class="st3" d="M16.94,109.84c-0.13-0.68,0.03-1.39,0.46-1.95c0.44-0.6,3.02-2.39,3.5-1.44
		C21.42,107.47,18.96,110.21,16.94,109.84z"/>
	<line class="st2" x1="16.93" y1="109.84" x2="19.42" y2="107.47"/>
	<line class="st2" x1="14.89" y1="102.96" x2="16.52" y2="100.3"/>
	<path class="st3" d="M16.02,101.1c-0.14-0.69,0.03-1.4,0.46-1.96c0.44-0.6,3.02-2.39,3.5-1.45
		C20.51,98.72,18.05,101.46,16.02,101.1z"/>
	<line class="st2" x1="16.02" y1="101.1" x2="18.51" y2="98.72"/>
	<path class="st3" d="M14.19,97.36c-0.14-0.69,0.03-1.4,0.46-1.96c0.44-0.6,3.02-2.39,3.5-1.44C18.67,94.99,16.22,97.73,14.19,97.36
		z"/>
	<line class="st2" x1="14.19" y1="97.36" x2="16.68" y2="94.99"/>
	<path class="st3" d="M14.33,97.46c-0.7,0.06-1.39-0.18-1.9-0.66c-0.55-0.5-2.06-3.26-1.07-3.63
		C12.43,92.76,14.91,95.49,14.33,97.46z"/>
	<line class="st2" x1="14.33" y1="97.47" x2="12.23" y2="94.75"/>
	<line class="st2" x1="26.72" y1="103.96" x2="22.86" y2="142.99"/>
	<line class="st2" x1="23.05" y1="140.68" x2="21.42" y2="138.02"/>
	<path class="st3" d="M21.92,138.82c0.14-0.69-0.03-1.4-0.46-1.96c-0.44-0.6-3.03-2.39-3.51-1.44
		C17.43,136.44,19.88,139.19,21.92,138.82z"/>
	<line class="st2" x1="21.91" y1="138.82" x2="19.57" y2="136.56"/>
	<line class="st2" x1="24.36" y1="128.08" x2="22.72" y2="125.43"/>
	<path class="st3" d="M23.22,126.23c0.14-0.69-0.03-1.4-0.46-1.96c-0.44-0.59-3.02-2.38-3.5-1.44
		C18.73,123.85,21.19,126.6,23.22,126.23z"/>
	<line class="st2" x1="23.22" y1="126.23" x2="20.87" y2="123.97"/>
	<line class="st2" x1="23.82" y1="133.25" x2="22.19" y2="130.59"/>
	<path class="st3" d="M22.68,131.38c0.14-0.69-0.03-1.4-0.46-1.96c-0.44-0.59-3.02-2.38-3.5-1.44
		C18.2,129.01,20.65,131.76,22.68,131.38z"/>
	<line class="st2" x1="22.68" y1="131.39" x2="20.34" y2="129.13"/>
	<line class="st2" x1="25.23" y1="119.7" x2="23.59" y2="117.04"/>
	<path class="st3" d="M24.09,117.84c0.13-0.69-0.04-1.4-0.47-1.96c-0.44-0.6-3.02-2.38-3.5-1.44
		C19.61,115.47,22.06,118.21,24.09,117.84z"/>
	<line class="st2" x1="24.09" y1="117.84" x2="21.74" y2="115.59"/>
	<line class="st2" x1="26.1" y1="111.28" x2="24.47" y2="108.62"/>
	<path class="st3" d="M24.96,109.42c0.13-0.69-0.04-1.4-0.47-1.96c-0.44-0.6-3.02-2.39-3.5-1.44
		C20.48,107.05,22.93,109.79,24.96,109.42z"/>
	<line class="st2" x1="24.96" y1="109.42" x2="22.62" y2="107.17"/>
	<line class="st2" x1="23.33" y1="137.62" x2="25.47" y2="135.35"/>
	<path class="st3" d="M24.82,136.03c0.01-0.7,0.32-1.36,0.85-1.82c0.55-0.49,3.45-1.72,3.72-0.69
		C29.7,134.62,26.73,136.81,24.82,136.03z"/>
	<line class="st2" x1="24.82" y1="136.03" x2="27.74" y2="134.21"/>
	<line class="st2" x1="24.73" y1="124.04" x2="26.88" y2="121.77"/>
	<path class="st3" d="M26.23,122.45c0.01-0.7,0.32-1.37,0.85-1.82c0.55-0.49,3.45-1.71,3.72-0.69
		C31.11,121.04,28.14,123.23,26.23,122.45z"/>
	<line class="st2" x1="26.23" y1="122.45" x2="29.15" y2="120.64"/>
	<line class="st2" x1="25.35" y1="118.07" x2="27.5" y2="115.8"/>
	<path class="st3" d="M26.85,116.48c0.01-0.7,0.32-1.36,0.85-1.82c0.55-0.49,3.45-1.72,3.72-0.69
		C31.73,115.08,28.76,117.26,26.85,116.48z"/>
	<line class="st2" x1="26.85" y1="116.48" x2="29.77" y2="114.67"/>
	<line class="st2" x1="26.26" y1="109.32" x2="28.41" y2="107.05"/>
	<path class="st3" d="M27.75,107.73c0.01-0.7,0.32-1.37,0.85-1.82c0.55-0.49,3.45-1.71,3.72-0.69
		C32.63,106.33,29.67,108.51,27.75,107.73z"/>
	<line class="st2" x1="27.75" y1="107.73" x2="30.67" y2="105.92"/>
	<path class="st3" d="M26.73,103.7c0.01-0.7,0.32-1.37,0.85-1.82c0.55-0.49,3.45-1.72,3.72-0.7
		C31.61,102.3,28.64,104.48,26.73,103.7z"/>
	<line class="st2" x1="26.73" y1="103.7" x2="29.65" y2="101.89"/>
	<path class="st3" d="M26.85,103.83c-0.7-0.08-1.32-0.46-1.72-1.04c-0.43-0.6-1.34-3.61-0.3-3.78
		C25.97,98.84,27.83,102.01,26.85,103.83z"/>
	<line class="st2" x1="26.85" y1="103.83" x2="25.35" y2="100.74"/>
	<line class="st2" x1="21.32" y1="85.61" x2="21.32" y2="142.99"/>
	<line class="st2" x1="21.37" y1="134.36" x2="19.47" y2="131.88"/>
	<path class="st3" d="M20.05,132.63c0.06-0.7-0.18-1.39-0.66-1.9c-0.5-0.55-3.25-2.06-3.63-1.07
		C15.34,130.73,18.06,133.2,20.05,132.63z"/>
	<line class="st2" x1="20.05" y1="132.63" x2="17.48" y2="130.63"/>
	<line class="st2" x1="21.37" y1="123.58" x2="19.47" y2="121.1"/>
	<path class="st3" d="M20.05,121.84c0.06-0.7-0.18-1.39-0.66-1.9c-0.5-0.55-3.25-2.06-3.63-1.07
		C15.34,119.94,18.06,122.42,20.05,121.84z"/>
	<line class="st2" x1="20.05" y1="121.84" x2="17.48" y2="119.85"/>
	<line class="st2" x1="21.37" y1="110.92" x2="19.47" y2="108.44"/>
	<path class="st3" d="M20.05,109.18c0.06-0.7-0.18-1.39-0.66-1.9c-0.5-0.55-3.25-2.06-3.63-1.07
		C15.34,107.28,18.06,109.76,20.05,109.18z"/>
	<line class="st2" x1="20.05" y1="109.18" x2="17.48" y2="107.19"/>
	<line class="st2" x1="21.37" y1="102.49" x2="19.47" y2="100.01"/>
	<path class="st3" d="M20.05,100.76c0.06-0.7-0.18-1.39-0.66-1.9c-0.5-0.55-3.25-2.06-3.63-1.07
		C15.34,98.86,18.06,101.33,20.05,100.76z"/>
	<line class="st2" x1="20.05" y1="100.76" x2="17.48" y2="98.76"/>
	<line class="st2" x1="21.37" y1="94.03" x2="19.47" y2="91.55"/>
	<path class="st3" d="M20.05,92.29c0.06-0.7-0.18-1.39-0.66-1.9c-0.5-0.55-3.25-2.06-3.63-1.07C15.34,90.39,18.06,92.87,20.05,92.29
		z"/>
	<line class="st2" x1="20.05" y1="92.29" x2="17.48" y2="90.29"/>
	<line class="st2" x1="21.33" y1="137.65" x2="23.23" y2="135.17"/>
	<path class="st3" d="M22.65,135.92c-0.06-0.7,0.18-1.39,0.66-1.9c0.5-0.55,3.25-2.06,3.63-1.07
		C27.35,134.02,24.63,136.5,22.65,135.92z"/>
	<line class="st2" x1="22.65" y1="135.92" x2="25.37" y2="133.81"/>
	<line class="st2" x1="21.33" y1="120.5" x2="23.23" y2="118.03"/>
	<path class="st3" d="M22.65,118.77c-0.06-0.7,0.18-1.39,0.66-1.9c0.5-0.55,3.25-2.06,3.63-1.07
		C27.35,116.87,24.63,119.35,22.65,118.77z"/>
	<line class="st2" x1="22.65" y1="118.77" x2="25.37" y2="116.66"/>
	<line class="st2" x1="21.33" y1="112.04" x2="23.23" y2="109.56"/>
	<path class="st3" d="M22.65,110.3c-0.06-0.7,0.18-1.39,0.66-1.9c0.5-0.55,3.25-2.06,3.63-1.07
		C27.35,108.41,24.63,110.88,22.65,110.3z"/>
	<line class="st2" x1="22.65" y1="110.3" x2="25.37" y2="108.2"/>
	<line class="st2" x1="21.33" y1="100.85" x2="23.23" y2="98.38"/>
	<path class="st3" d="M22.65,99.12c-0.06-0.7,0.18-1.39,0.66-1.9c0.5-0.55,3.25-2.06,3.63-1.07C27.35,97.22,24.63,99.7,22.65,99.12z
		"/>
	<line class="st2" x1="22.65" y1="99.12" x2="25.37" y2="97.01"/>
	<line class="st2" x1="21.33" y1="92.06" x2="23.23" y2="89.58"/>
	<path class="st3" d="M22.65,90.32c-0.06-0.7,0.18-1.39,0.66-1.9c0.5-0.55,3.25-2.06,3.63-1.07C27.35,88.42,24.63,90.9,22.65,90.32z
		"/>
	<line class="st2" x1="22.65" y1="90.32" x2="25.37" y2="88.22"/>
	<path class="st3" d="M21.21,86.42c-0.06-0.7,0.18-1.39,0.66-1.9c0.5-0.55,3.25-2.06,3.63-1.07C25.92,84.52,23.19,87,21.21,86.42z"
		/>
	<line class="st2" x1="21.21" y1="86.42" x2="23.93" y2="84.32"/>
	<path class="st3" d="M21.34,86.54c-0.7-0.01-1.36-0.32-1.82-0.86c-0.49-0.55-1.71-3.45-0.69-3.73
		C19.95,81.66,22.13,84.63,21.34,86.54z"/>
	<line class="st2" x1="21.34" y1="86.54" x2="19.54" y2="83.61"/>
</g>
<g id="freepik--Characters--inject-164_00000160164920153998410760000014881904882077759920_">
	<path class="st4" d="M54.21,143.02c-0.84-2.59-2.9-8.97-2.74-9.22c0.2-0.31,0.2-1.95,0.2-1.95s-6.69,0.82-11.42-3.19
		c-4.73-4.01-10.4-8.75-10.4-8.75s-0.82,2.46-1.65,5.04c-0.7,2.18-2.05,14.36-2.46,18.07H54.21z"/>
	<path class="st5" d="M37.65,135.85c1.2,1.11,3.28,3.07,4.8,4.71"/>
	<path class="st5" d="M36.69,134.97l0.37,0.34"/>
	<path class="st6" d="M60.05,91.53c0,0-7.04,2.95-10.25,5.12s-9.73,8.51-11.64,11.03c-1.91,2.52-6.6,7.83-7.82,9.29
		c-1.21,1.46-2,2.35-1.66,4.78s2.43,6.34,4.69,8.34c2.26,2,6.77,4.49,12.6,4.26c3.39-0.14,5.39-0.87,7.21-2.69
		c1.82-1.82,4.6-6.6,7.04-8.95c2.43-2.34,6.6-7.12,6.6-7.12s11.12,4,12.16,4s6.26-2.95,6.34-3.82c0.09-0.87-11.47-8.51-12.51-10.42
		s-3.2-5.39-3.2-5.39S64.38,92.39,60.05,91.53z"/>
	<path class="st4" d="M72.82,105.33c-1.04-1.91-3.21-5.39-3.21-5.39c-1.09-1.53-2.29-2.99-3.59-4.35c-0.43,0.07-0.84,0.23-1.2,0.47
		c-2.7,1.99-1.42,6.95-1.14,10.91c0.2,2.44,0.93,4.81,2.14,6.95l-4.2,7.38c2.36-2.46,5.22-5.72,5.22-5.72s11.12,4,12.16,4
		s6.26-2.95,6.34-3.82C85.42,114.89,73.86,107.25,72.82,105.33z"/>
	<path class="st7" d="M56.83,93.55c0,0-1.71-0.85-2.91,3.25c-1.2,4.11,1.88,14.89,3.42,15.06s4.79-7.87,5.3-10.27
		S61.62,92.01,56.83,93.55z"/>
	<path class="st8" d="M62.13,102.47c0,0-0.89,0.75-2.17,1.74c-1.48,1.13-1.75,3.23-2.79,2.01c-1.04-1.22-2.6-9.74-1.64-11.48
		c0.96-1.74,4.51-4.08,4.78-4.26s2.69,3.04,2.87,5.39C63.35,98.21,62.13,102.47,62.13,102.47z"/>
	<path class="st4" d="M60.31,90.48c-0.26,0.17-3.82,2.52-4.78,4.26c-0.38,0.68-0.36,2.42-0.15,4.35c0.34,0.23,0.71,0.48,1.11,0.74
		c3.22,2.12,5.64,2.64,5.64,2.64l0.18-9.28C61.54,91.64,60.47,90.37,60.31,90.48z"/>
	<path class="st8" d="M75.77,92.74l-3.65,6.25c-1.22,2.09-2.61,4.51-5.04,5.04s-4.78,0.87-6.08-1.22c-1.3-2.09-2.69-4.86-1.82-8.69
		c0.87-3.82,2.35-4.95,4.17-6.34c1.82-1.39,3.64-2.26,5.73-1.48S75.77,92.74,75.77,92.74z"/>
	<path class="st4" d="M68.39,94.89c-0.18,0.32-0.49,0.5-0.68,0.38c-0.19-0.11-0.2-0.46-0.02-0.78c0.18-0.32,0.49-0.49,0.68-0.38
		S68.57,94.56,68.39,94.89z"/>
	<path class="st4" d="M72.16,96.67c-0.18,0.32-0.49,0.5-0.68,0.39c-0.19-0.11-0.2-0.46-0.02-0.79c0.18-0.32,0.49-0.49,0.68-0.38
		C72.34,96,72.35,96.35,72.16,96.67z"/>
	<path class="st9" d="M67.33,92.28c0.88-0.16,1.8,0.06,2.51,0.6"/>
	<path class="st9" d="M72.1,94.16c0,0,1.77,0.09,1.69,1.38"/>
	<path class="st9" d="M65.4,98.7c0,0,0.47,1.51,2.77,2.19"/>
	<path class="st9" d="M71.53,95.32L71,96.58c0,0-1.19,2.97-1.4,3.36c-0.21,0.4-1.83-0.41-2.28-1.12"/>
	<path class="st4" d="M61.44,92.04c0,0,0.26,0,0.95-0.43c0.69-0.43,1.48,0.35,3.13-0.26c1.65-0.61-0.7-2.95,1.56-3.13
		c2.26-0.17,3.48,3.48,6.25,4.78c2.78,1.3,4.69,0.78,5.91-2.35c1.21-3.13-0.52-4.95-1.91-6.34c-1.39-1.39,0-1.66-0.43-3.82
		s-2.61-3.04-4.69-2.26c-2.08,0.78-1.57,1.39-2.7,1.39s-2.17-1.48-5.3-0.87c-3.13,0.61-5.56,3.91-5.91,7.04
		c-0.35,3.13,0.7,6.43,1.13,6.6C59.87,92.57,61.44,92.04,61.44,92.04z"/>
	<path class="st8" d="M61.44,93.19c0,0,0.86-2.67-0.05-3.46c-0.91-0.79-2.42-0.28-2.73,0.89c-0.31,1.18-0.8,3.3-0.29,3.84
		c0.51,0.54,1.52,0.38,1.52,0.38"/>
	<path class="st4" d="M90.24,143.02l-3.73-13.72c-0.57-2.08-2.46-3.53-4.62-3.53H66.95c-2.47,0-4.54,1.88-4.77,4.35L61,143.02H90.24
		z"/>
	<path class="st7" d="M79.59,114.89c0,0-11.21,5.04-11.73,5.56c-0.52,0.52-3.74,22.57-3.74,22.57h38.66c0,0-6-23.26-6.78-23.78
		c-0.78-0.52-11.03-4.78-11.29-4.78C84.46,114.46,79.59,114.89,79.59,114.89z"/>
	<path class="st8" d="M93.09,115.84c0,0,1.11,0.05,1.31,0.35c0.2,0.3,0.71,2.17,0.5,2.61c-0.21,0.44-0.65,0.05-0.95-0.5
		c-0.29-0.55-0.56-1.11-0.56-1.11l-0.56-0.4L93.09,115.84z"/>
	<path class="st8" d="M91.67,114.74c0,0,1.41,0.15,1.61,0.65c0.2,0.5,0.15,1.81-0.05,2.57c-0.2,0.75-0.55,1.26-0.86,1.01
		c-0.3-0.25-0.91-2.92-0.91-3.22C91.47,115.44,91.52,114.74,91.67,114.74z"/>
	<path class="st8" d="M90.66,114.03c0,0,1.31,0.35,1.56,0.71c0.25,0.36,0.25,2.32,0,3.07c-0.25,0.75-0.86,0.95-1.16,0.76
		c-0.3-0.19-0.6-1.46-0.6-2.07C90.46,115.9,90.66,114.03,90.66,114.03z"/>
	<path class="st8" d="M89,113.81c0,0,1.33-0.51,1.74,0c0.41,0.51,0.2,4.4-0.1,4.81c-0.31,0.41-1.23,0-1.23-0.51
		s-0.35-1.91-0.35-1.91l-1.59-0.65C87.47,115.55,88.28,113.81,89,113.81z"/>
	<line class="st9" x1="89.05" y1="116.2" x2="88.9" y2="114.99"/>
	<path class="st8" d="M78.97,115.28c0,0-1.69,0.34-1.8,1.69s0.23,8,1.13,8.68c0.9,0.68,5.31-2.48,5.31-2.48s3.48,1.81,4.27,1.24
		c0.79-0.57,0.11-6.42-1.58-8.68C84.6,113.48,78.97,115.28,78.97,115.28z"/>
	<line class="st9" x1="72.06" y1="135.75" x2="73.77" y2="126.68"/>
	<polyline class="st9" points="93.11,124.97 95.16,132.4 93.79,142.77 	"/>
	<ellipse class="st4" cx="74.04" cy="108.74" rx="5.34" ry="5.08"/>
	<path class="st5" d="M76.04,113.35c0.27-0.1,0.52-0.24,0.76-0.39"/>
	<path class="st5" d="M69.37,106.41c0,0-1.26,3.42,0.82,5.72c1.46,1.62,3.48,1.81,5.01,1.46"/>
	<path class="st8" d="M78.55,112.03c0,0-0.09,3.39-0.09,4.34s2.87,5.22,4.6,5.47c1.74,0.25,2.43-2.95,2.52-4.43s0.43-3.56,0.43-3.56
		S80.99,114.89,78.55,112.03z"/>
	<path class="st4" d="M84.89,115.29l-0.88-1.26c-1.68,0.01-4.03-0.32-5.46-2.01c0,0-0.05,2.19-0.08,3.54
		C82.51,116.42,84.89,115.29,84.89,115.29z"/>
	<path class="st8" d="M76.81,109.51c0,0,1.04,2.87,2.52,4.26c1.48,1.39,4.34,3.21,6.34,2.17c2-1.04,3.3-2.43,3.82-5.64
		c0.52-3.21,0-10.6,0-10.6s-0.26-1.56-3.04-2.09c-2.78-0.52-7.56,0.43-8.51,2.35s-1.22,4.43-1.22,5.99
		C76.72,107.51,76.81,109.51,76.81,109.51z"/>
	<ellipse class="st4" cx="83.31" cy="106.57" rx="0.4" ry="0.67"/>
	<path class="st4" d="M87.88,106.25c0,0.37-0.18,0.67-0.4,0.67s-0.4-0.3-0.4-0.67c0-0.37,0.18-0.67,0.4-0.67
		S87.88,105.88,87.88,106.25z"/>
	<path class="st9" d="M82.1,105.09c0,0,0.36-1.16,1.88-0.99"/>
	<path class="st9" d="M86.58,104.1c0,0,0.9-1.25,2.15,0.36"/>
	<path class="st9" d="M86.58,106.71c0,0-0.36,0.98,0,1.42c0.36,0.44,0.54,1.35-0.09,1.52c-0.47,0.12-0.94,0.18-1.42,0.18"/>
	<path class="st9" d="M83,111.36c0,0,1.16,1.08,3.49,0.54"/>
	<path class="st4" d="M88.02,99.54l1.79,4.21c0,0,2.06-1.61,1.7-4.3s-1.88-2.87-1.88-2.87L88.02,99.54z"/>
	<path class="st4" d="M76.29,105.43c0,0,0.34,1.19,1.38,0.4c1.04-0.78,2.18-3.27,2.18-3.27s-1.39,1.82-0.52,2.35
		s4.51-0.44,8.51-4.34c4-3.91,3.21-6.17,1.3-7.73c-1.91-1.56-6.25,0.95-6.25,0.95s-3.04-0.95-6.86,1.3
		c-3.82,2.25-3.13,7.56-2.52,8.51C74.12,104.55,74.21,106.29,76.29,105.43z"/>
	<path class="st8" d="M77.24,106.37c0,0-0.7-2.17-1.82-2.09s-1.82,3.56-0.43,5.12c1.39,1.57,2.17,0.26,2.17,0.26"/>
	<path class="st7" d="M76.62,109.32c0,0.31-0.25,0.56-0.56,0.56c-0.31,0-0.56-0.25-0.56-0.56c0-0.31,0.25-0.56,0.56-0.56
		c0,0,0,0,0,0C76.37,108.76,76.62,109.01,76.62,109.32z"/>
	<path class="st8" d="M87.93,122.8l2.61,5.65c0,0,9.9,5.82,10.51,6.08c0.61,0.26,2.26,1.82,2.52,3.91c0.26,2.08-0.95,3.3-2.43,3.3
		c-1.48,0-2.87-0.35-4-1.3c-1.13-0.95-8.69-10.34-8.69-10.34s-1.65-0.95-2.08-1.3s-0.87-1.3-0.87-1.3s-0.87,0.43-1.48,0.35
		s-1.56-2.09-1.56-2.09s0.95-3.13,1.22-3.56c0.27-0.43,2.61-0.52,2.61-0.52L87.93,122.8z"/>
	<polyline class="st9" points="84.37,126.62 85.32,126.27 85.5,126.71 85.5,127.49 	"/>
	<path class="st8" d="M78.9,127.59l2.17-6.6c0,0,2.52-0.95,3.21-1.13c0.7-0.18,2.78,1.66,3.21,1.74c0.44,0.08,0.69,1.13,0.43,1.22
		s-1.13-0.35-1.13-0.35l-2.61,0.44c0,0-0.78,4.08-1.65,5.04c-0.71,0.72-1.5,1.36-2.35,1.91c0,0-8.42,10.08-9.03,11.03
		c-0.61,0.95-3.56,2.69-5.65,1.48c-2.09-1.22-0.95-4.17-0.35-5.22S78.9,127.59,78.9,127.59z"/>
	<polyline class="st9" points="87.5,121.58 85.26,121.1 83.68,121.45 	"/>
	<polyline class="st9" points="82.73,120.84 85.09,120.4 85.79,120.48 	"/>
	<path class="st6" d="M51.66,97.79c0,0,1.57,4.17,1.3,8.34c-0.26,4.17,1.04,17.81,1.39,19.28c0.35,1.48,0.78,4,0.78,4
		s13.64,6.6,16.07,7.56c1.79,0.67,3.61,1.22,5.47,1.66c0,0,5.12-1.74,5.65-2.17c0.52-0.43,1.82,0.17,1.82,0.17s2.78,0.78,2.95,1.04
		c0.17,0.26,0.09,3.73,0.09,3.73s0.35,0.95,0.09,1.04c-0.26,0.09-3.13,0.78-4.08,0.52s-3.47-1.39-3.47-1.39s-1.91,0.7-2.87,0.52
		c-0.96-0.17-2.17-0.43-2.17-0.43s-16.16-2.61-20.5-3.65s-7.03-1.65-7.47-3.21c-0.43-1.56-4.87-20.76-5.04-21.8"/>
	<path class="st4" d="M80.79,139.62h5.42c1.09,0,1.97,0.88,1.97,1.97v1.42l0,0h-9.36l0,0v-1.42
		C78.82,140.5,79.7,139.62,80.79,139.62L80.79,139.62z"/>
	<path class="st8" d="M83.19,142.96c0.95,0.26,3.82-0.43,4.08-0.52c0.26-0.09-0.09-1.04-0.09-1.04s0.09-3.47-0.09-3.73
		c-0.17-0.26-2.95-1.04-2.95-1.04s-1.3-0.61-1.82-0.17s-5.65,2.17-5.65,2.17c-1.86-0.44-3.68-0.99-5.47-1.66
		c-0.86-0.34-3.12-1.38-5.68-2.59c-3.27,0.88-3.53,3.73-3.45,5.15c5.93,1.05,12.61,2.14,12.61,2.14s1.22,0.26,2.17,0.43
		c0.95,0.17,2.87-0.52,2.87-0.52S82.23,142.7,83.19,142.96z"/>
	<path class="st9" d="M84.06,137.49c0,0,1.48,1.74,2,2.43c0.52,0.7,1.13,1.48,1.13,1.48"/>
	<path class="st9" d="M81.89,138.01c0,0,2.26,2.35,2.87,2.78s1.39,1.91,1.39,1.91"/>
	<path class="st9" d="M80.06,139.49c0,0,2.87,2.08,3.21,2.34c0.4,0.35,0.78,0.73,1.13,1.13"/>
	<path class="st7" d="M67.48,135.3c-0.62-0.29-1.28-0.6-1.96-0.92c-3.27,0.88-3.53,3.73-3.45,5.15l2.35,0.41
		C64.71,137.35,66.45,135.93,67.48,135.3z"/>
</g>
<g id="freepik--Device--inject-164_00000057131000602026908320000012361403142518618003_">
	<path class="st4" d="M94.16,141.48h35.32l0,0v1.53l0,0H92.77l0,0v-0.15C92.77,142.1,93.39,141.48,94.16,141.48z"/>
	<rect x="107.14" y="141.48" class="st8" width="22.33" height="1.54"/>
	<polygon class="st8" points="131.91,124.15 109.58,124.15 107.14,141.35 129.47,141.35 	"/>
	<path class="st4" d="M129.47,141.35l2.14-15.1c-2.89,2.25-7.05,5.72-11.81,9.67c-3.64,3.03-6.68,4.61-8.91,5.43H129.47z"/>
	<ellipse class="st8" cx="120.06" cy="133.78" rx="2.14" ry="1.8"/>
	<line class="st9" x1="138.4" y1="143.02" x2="140.5" y2="143.02"/>
	<line class="st9" x1="11.24" y1="143.02" x2="136.74" y2="143.02"/>
</g>
<g id="freepik--Window--inject-164_00000147906245632169040870000015849823307947103899_">
	<circle class="st7" cx="112.51" cy="74.16" r="3.98"/>
	<line class="st9" x1="112.39" y1="73.7" x2="112.39" y2="89.05"/>
	<line class="st9" x1="112.39" y1="75.97" x2="114.66" y2="73.62"/>
	<line class="st9" x1="112.22" y1="77.14" x2="110.92" y2="75.84"/>
	<circle class="st7" cx="106.84" cy="79.15" r="2.66"/>
	<line class="st9" x1="106.75" y1="78.84" x2="106.75" y2="89.09"/>
	<line class="st9" x1="106.75" y1="80.35" x2="108.26" y2="78.78"/>
	<line class="st9" x1="106.64" y1="81.13" x2="105.77" y2="80.27"/>
	<circle class="st7" cx="132.45" cy="76.98" r="2.66"/>
	<line class="st9" x1="132.36" y1="76.67" x2="132.36" y2="86.92"/>
	<line class="st9" x1="132.36" y1="78.18" x2="133.88" y2="76.61"/>
	<line class="st9" x1="132.25" y1="78.96" x2="131.38" y2="78.1"/>
	<rect x="106.98" y="83.38" class="st8" width="27.16" height="8.57"/>
	<polygon class="st7" points="120.6,75.56 107.05,83.38 134.15,83.38 	"/>
	<rect x="119.35" y="82.68" class="st8" width="6.72" height="9.27"/>
	<rect x="119.35" y="82.68" class="st4" width="6.72" height="0.39"/>
	<path class="st4" d="M124.39,91.95h-3.36v-5.79c0-0.93,0.75-1.68,1.68-1.68l0,0l0,0c0.93,0,1.68,0.75,1.68,1.67c0,0,0,0,0,0
		L124.39,91.95z"/>
	<rect x="105.03" y="84.88" class="st8" width="15.57" height="7.07"/>
	<rect x="105.03" y="84.88" class="st4" width="15.57" height="0.32"/>
	<rect x="106.74" y="85.46" class="st7" width="12.14" height="6.49"/>
	<polygon class="st7" points="112.82,79.71 104.55,84.48 121.08,84.48 	"/>
	<rect x="104.55" y="84.48" class="st8" width="16.53" height="0.4"/>
	<polygon class="st7" points="122.71,79.99 118.43,82.46 126.99,82.46 	"/>
	<rect x="118.43" y="82.46" class="st8" width="8.56" height="0.4"/>
	<rect x="107.19" y="85.98" class="st8" width="0.98" height="0.98"/>
	<rect x="108.66" y="85.98" class="st8" width="0.98" height="0.98"/>
	<rect x="110.14" y="85.98" class="st8" width="0.98" height="0.98"/>
	<rect x="111.61" y="85.98" class="st8" width="0.98" height="0.98"/>
	<rect x="113.09" y="85.98" class="st8" width="0.98" height="0.98"/>
	<rect x="114.56" y="85.98" class="st8" width="0.98" height="0.98"/>
	<rect x="116.04" y="85.98" class="st8" width="0.98" height="0.98"/>
	<rect x="117.51" y="85.98" class="st8" width="0.98" height="0.98"/>
	<rect x="107.19" y="87.43" class="st8" width="0.98" height="0.98"/>
	<rect x="108.66" y="87.43" class="st8" width="0.98" height="0.98"/>
	<rect x="110.14" y="87.43" class="st8" width="0.98" height="0.98"/>
	<rect x="111.61" y="87.43" class="st8" width="0.98" height="0.98"/>
	<rect x="113.09" y="87.43" class="st8" width="0.98" height="0.98"/>
	<rect x="114.56" y="87.43" class="st8" width="0.98" height="0.98"/>
	<rect x="116.04" y="87.43" class="st8" width="0.98" height="0.98"/>
	<rect x="117.51" y="87.43" class="st8" width="0.98" height="0.98"/>
	<rect x="107.19" y="88.88" class="st8" width="0.98" height="0.98"/>
	<rect x="108.66" y="88.88" class="st8" width="0.98" height="0.98"/>
	<rect x="110.14" y="88.88" class="st8" width="0.98" height="0.98"/>
	<rect x="111.61" y="88.88" class="st8" width="0.98" height="0.98"/>
	<rect x="113.09" y="88.88" class="st8" width="0.98" height="0.98"/>
	<rect x="114.56" y="88.88" class="st8" width="0.98" height="0.98"/>
	<rect x="116.04" y="88.88" class="st8" width="0.98" height="0.98"/>
	<rect x="117.51" y="88.88" class="st8" width="0.98" height="0.98"/>
	<rect x="107.19" y="90.33" class="st8" width="0.98" height="0.98"/>
	<rect x="108.66" y="90.33" class="st8" width="0.98" height="0.98"/>
	<rect x="110.14" y="90.33" class="st8" width="0.98" height="0.98"/>
	<rect x="111.61" y="90.33" class="st8" width="0.98" height="0.98"/>
	<rect x="113.09" y="90.33" class="st8" width="0.98" height="0.98"/>
	<rect x="114.56" y="90.33" class="st8" width="0.98" height="0.98"/>
	<rect x="116.04" y="90.33" class="st8" width="0.98" height="0.98"/>
	<rect x="117.51" y="90.33" class="st8" width="0.98" height="0.98"/>
	<polygon class="st8" points="134.92,91.95 124.98,91.95 124.98,82.68 129.95,79.99 134.92,82.68 	"/>
	<polygon class="st8" points="135.68,83.08 129.95,79.97 124.23,83.08 124.05,82.75 129.95,79.55 135.85,82.75 	"/>
	<polygon class="st4" points="124.98,82.68 124.98,82.91 129.95,80.22 134.92,82.91 134.92,82.68 129.95,79.99 	"/>
	<rect x="130.11" y="85.86" class="st4" width="1.67" height="1.16"/>
	<rect x="130.11" y="87.4" class="st4" width="1.67" height="1.16"/>
	<rect x="130.11" y="84.24" class="st4" width="1.67" height="1.24"/>
	<rect x="128.06" y="84.24" class="st4" width="1.67" height="1.24"/>
	<rect x="128.06" y="87.4" class="st4" width="1.67" height="1.16"/>
	<rect x="128.06" y="85.86" class="st4" width="1.67" height="1.16"/>
	<rect x="130.11" y="88.94" class="st4" width="1.67" height="1.07"/>
	<rect x="128.06" y="88.94" class="st4" width="1.67" height="1.07"/>
	<path class="st7" d="M111.44,95.53h17.21c0.92,0,1.66,0.74,1.66,1.66v4.55c0,0.92-0.74,1.66-1.66,1.66h-17.21
		c-0.92,0-1.66-0.74-1.66-1.66v-4.55C109.78,96.27,110.52,95.53,111.44,95.53z"/>
	<path class="st10" d="M115.92,97.88c0.47,0,0.73,0.29,0.73,0.8v0.1h-0.47v-0.14c0-0.23-0.09-0.31-0.25-0.31
		c-0.16,0-0.24,0.09-0.24,0.31c0,0.65,0.97,0.77,0.97,1.68c0,0.51-0.25,0.8-0.74,0.8s-0.74-0.29-0.74-0.8v-0.19h0.47v0.24
		c0,0.23,0.1,0.31,0.26,0.31c0.16,0,0.26-0.08,0.26-0.31c0-0.65-0.97-0.77-0.97-1.68C115.18,98.17,115.43,97.88,115.92,97.88z"/>
	<path class="st10" d="M117.43,99.26h0.68v0.45h-0.68v0.93h0.86v0.45h-1.36v-3.15h1.36v0.45h-0.86V99.26z"/>
	<path class="st10" d="M118.6,97.93h0.5v2.71h0.82v0.45h-1.31L118.6,97.93z"/>
	<path class="st10" d="M120.63,99.26h0.7v0.45h-0.68v0.93h0.86v0.45h-1.36v-3.15h1.36v0.45h-0.86L120.63,99.26z"/>
	<path class="st10" d="M123.23,99.91v0.42c0,0.51-0.25,0.8-0.74,0.8s-0.74-0.29-0.74-0.8v-1.64c0-0.51,0.25-0.8,0.74-0.8
		c0.49,0,0.74,0.29,0.74,0.8v0.31h-0.47v-0.34c0-0.23-0.1-0.31-0.26-0.31c-0.16,0-0.26,0.09-0.26,0.31v1.71
		c0,0.23,0.1,0.31,0.26,0.31c0.16,0,0.26-0.08,0.26-0.31V99.9L123.23,99.91z"/>
	<path class="st10" d="M123.39,97.93h1.53v0.45h-0.52v2.71h-0.5v-2.72h-0.52L123.39,97.93z"/>
	<path class="st8" d="M126.78,107.01c0,0-1.02-1.65-1.35-1.9c-0.33-0.25-1.12-0.24-1.25,0.33s0.2,0.86,0.43,1.09
		c0.3,0.38,0.57,0.77,0.82,1.19c0.28,0.46,0.34,1.16,0.59,1.66c0.57,1.14,1.69,2.11,3.02,2.12c1.47,0,2.88-1.26,3.08-2.73
		c0.08-0.62,0.09-2.35,0.1-2.95c0-0.13-0.04-0.26-0.13-0.37c-0.23-0.26-0.61-0.32-0.91-0.14l-0.11,0.07l-0.12-0.18
		c-0.08-0.14-0.21-0.26-0.36-0.33c-0.26-0.14-0.59-0.09-0.79,0.13l-0.11,0.13l-0.13-0.22c-0.29-0.35-0.92-0.38-1.19-0.02v-2.61
		c0-0.43-0.35-0.77-0.78-0.77c-0.43,0-0.77,0.35-0.77,0.77L126.78,107.01z"/>
	<line class="st9" x1="129.67" y1="105.11" x2="129.67" y2="106.62"/>
	<line class="st9" x1="131.05" y1="105.37" x2="131.05" y2="106.72"/>
	<line class="st9" x1="128.35" y1="104.87" x2="128.35" y2="106.42"/>
	<line class="st9" x1="127.57" y1="99.38" x2="127.57" y2="100.92"/>
	<line class="st9" x1="128.82" y1="101.87" x2="130.12" y2="101.87"/>
	<line class="st9" x1="124.85" y1="101.87" x2="126.16" y2="101.87"/>
	<line class="st9" x1="128.52" y1="100.92" x2="129.05" y2="100.27"/>
	<line class="st9" x1="126.45" y1="100.92" x2="125.92" y2="100.27"/>
	<path class="st9" d="M103.86,64.46h32.47c1,0,1.82,0.81,1.82,1.82v45.65c0,1-0.81,1.82-1.82,1.82h-32.47c-1,0-1.82-0.81-1.82-1.82
		V66.28C102.04,65.28,102.86,64.46,103.86,64.46z"/>
	<path class="st4" d="M136.19,64.46H104c-1.09,0-1.97,0.88-1.97,1.97v0.42h36.13v-0.43C138.17,65.34,137.28,64.46,136.19,64.46
		C136.19,64.46,136.19,64.46,136.19,64.46z"/>
	<circle class="st8" cx="132.68" cy="65.61" r="0.56"/>
	<circle class="st8" cx="134.73" cy="65.61" r="0.56"/>
	<line class="st9" x1="121.07" y1="113.92" x2="121.07" y2="124.19"/>
</g>
<g id="freepik--Clouds--inject-166">
	<path class="st10" d="M91.26,28.79h-31.9c-0.03,0-0.06-0.02-0.08-0.05c-0.02-0.03-0.02-0.06,0-0.09c0.04-0.06,0.97-1.61,2.09-1.93
		c0.57-0.16,1.19,0.21,1.79,0.57c0.6,0.36,1.13,0.69,1.49,0.39c0.18-0.15,0.38-0.34,0.58-0.54c0.7-0.69,1.57-1.55,2.92-1.67
		c0.88-0.08,1.48,0.31,2,0.65c0.52,0.34,0.9,0.59,1.42,0.3c0.26-0.15,0.52-0.57,0.84-1.1c0.92-1.52,2.46-4.06,6.6-3.47
		c5.09,0.72,6.33,4.17,6.5,4.71c0.29-0.03,0.57-0.11,0.84-0.24c0.57-0.23,1.22-0.49,2.27-0.07c1.58,0.63,2.67,2.32,2.71,2.39
		c0.02,0.03,0.02,0.06,0,0.09C91.32,28.77,91.29,28.79,91.26,28.79z M59.53,28.61h31.57c-0.3-0.42-1.26-1.68-2.53-2.18
		c-0.98-0.39-1.57-0.16-2.14,0.07c-0.3,0.15-0.63,0.23-0.97,0.25c-0.04,0-0.08-0.03-0.09-0.07c0-0.04-1-3.88-6.37-4.65
		c-4.03-0.57-5.47,1.8-6.42,3.38c-0.34,0.56-0.6,0.99-0.9,1.17c-0.6,0.34-1.09,0.03-1.6-0.31s-1.06-0.7-1.89-0.62
		c-1.29,0.12-2.13,0.95-2.81,1.62c-0.21,0.21-0.41,0.41-0.6,0.56c-0.45,0.36-1.05,0-1.69-0.38c-0.56-0.34-1.15-0.69-1.64-0.54
		C60.56,27.14,59.78,28.22,59.53,28.61z"/>
	<path class="st10" d="M36.66,40.01H13.79c-0.03,0-0.06-0.02-0.08-0.04c-0.02-0.03-0.02-0.06,0-0.09c0.03-0.05,0.7-1.16,1.52-1.39
		c0.42-0.12,0.87,0.15,1.3,0.41s0.79,0.48,1.03,0.28c0.13-0.1,0.27-0.24,0.42-0.39c0.5-0.5,1.13-1.12,2.11-1.21
		c0.64-0.06,1.09,0.24,1.45,0.47c0.36,0.24,0.64,0.42,0.99,0.22c0.18-0.1,0.37-0.42,0.59-0.78c0.66-1.09,1.77-2.92,4.76-2.5
		c3.61,0.51,4.53,2.93,4.67,3.38c0.2-0.03,0.39-0.08,0.57-0.17c0.42-0.17,0.89-0.36,1.65-0.05c1.14,0.46,1.92,1.67,1.96,1.72
		c0.02,0.03,0.02,0.06,0,0.09C36.72,39.99,36.69,40.01,36.66,40.01z M13.96,39.83h22.53c-0.24-0.33-0.91-1.17-1.78-1.52
		c-0.69-0.28-1.11-0.11-1.51,0.05c-0.22,0.11-0.46,0.17-0.71,0.18c-0.04,0-0.08-0.03-0.09-0.07c0-0.03-0.72-2.76-4.54-3.31
		c-2.87-0.41-3.9,1.29-4.58,2.41c-0.24,0.4-0.43,0.72-0.66,0.84c-0.45,0.26-0.8,0.02-1.18-0.22c-0.38-0.25-0.76-0.5-1.34-0.44
		c-0.91,0.08-1.51,0.68-2,1.16c-0.15,0.15-0.29,0.29-0.43,0.4c-0.34,0.27-0.78,0-1.24-0.27c-0.4-0.24-0.81-0.49-1.16-0.39
		C14.69,38.82,14.17,39.52,13.96,39.83z"/>
	<path class="st10" d="M45.41,15.67H30.92c-0.03,0-0.06-0.02-0.08-0.04c-0.02-0.03-0.02-0.06,0-0.09c0.02-0.03,0.45-0.75,0.98-0.9
		c0.28-0.08,0.58,0.1,0.85,0.26c0.27,0.16,0.48,0.29,0.62,0.18c0.09-0.08,0.18-0.16,0.26-0.24c0.32-0.32,0.72-0.72,1.36-0.77
		c0.34-0.02,0.67,0.09,0.94,0.3c0.25,0.17,0.4,0.25,0.59,0.14c0.15-0.14,0.27-0.3,0.36-0.49c0.42-0.7,1.13-1.87,3.05-1.6
		c2.24,0.32,2.86,1.8,2.98,2.14c0.11-0.02,0.22-0.05,0.33-0.1c0.33-0.17,0.72-0.18,1.07-0.03c0.73,0.29,1.24,1.08,1.26,1.1
		c0.03,0.04,0.01,0.1-0.03,0.12C45.44,15.66,45.43,15.67,45.41,15.67L45.41,15.67z M31.09,15.49h14.16c-0.28-0.39-0.65-0.7-1.08-0.9
		c-0.3-0.13-0.64-0.12-0.93,0.03c-0.14,0.07-0.3,0.11-0.46,0.12c-0.04,0-0.08-0.03-0.09-0.07c-0.02-0.07-0.45-1.73-2.85-2.07
		c-1.8-0.26-2.44,0.81-2.87,1.51c-0.1,0.21-0.25,0.39-0.43,0.54c-0.3,0.18-0.54,0.01-0.78-0.14c-0.23-0.19-0.53-0.29-0.83-0.27
		c-0.57,0.05-0.94,0.42-1.25,0.72c-0.1,0.1-0.18,0.18-0.27,0.26c-0.23,0.18-0.54,0-0.82-0.17c-0.25-0.15-0.5-0.3-0.71-0.24
		C31.54,14.91,31.23,15.28,31.09,15.49L31.09,15.49z"/>
</g>
<g id="freepik--Sun--inject-166">
	<path class="st10" d="M63.29,18.42c-2.33,0-4.22-1.89-4.22-4.22c0-2.33,1.89-4.22,4.22-4.22s4.22,1.89,4.22,4.22c0,0,0,0,0,0
		C67.51,16.53,65.62,18.42,63.29,18.42z M63.29,10.16c-2.23,0-4.04,1.81-4.04,4.04c0,2.23,1.81,4.04,4.04,4.04
		c2.23,0,4.04-1.81,4.04-4.04c0,0,0,0,0,0C67.33,11.97,65.52,10.17,63.29,10.16L63.29,10.16z"/>
	<path class="st10" d="M63.29,9.04c-0.05,0-0.09-0.04-0.09-0.09V7.27c0-0.05,0.04-0.09,0.09-0.09c0.05,0,0.09,0.04,0.09,0.09v1.68
		C63.38,9,63.34,9.04,63.29,9.04z"/>
	<path class="st10" d="M63.29,21.51c-0.05,0-0.09-0.04-0.09-0.09v-1.69c0-0.05,0.04-0.09,0.09-0.09c0.05,0,0.09,0.04,0.09,0.09v1.68
		C63.39,21.46,63.35,21.5,63.29,21.51C63.3,21.51,63.3,21.51,63.29,21.51z"/>
	<path class="st10" d="M67.1,10.62c-0.02,0-0.05-0.01-0.06-0.03c-0.03-0.04-0.03-0.09,0-0.13l1.19-1.19c0.03-0.03,0.09-0.03,0.13,0
		c0.04,0.03,0.04,0.09,0,0.13c0,0,0,0,0,0l-1.19,1.19C67.15,10.61,67.13,10.62,67.1,10.62z"/>
	<path class="st10" d="M58.29,19.43c-0.02,0-0.05-0.01-0.06-0.03c-0.03-0.03-0.04-0.09,0-0.12c0,0,0,0,0,0l1.19-1.18
		c0.03-0.04,0.09-0.04,0.13,0c0,0,0,0,0,0c0.03,0.03,0.03,0.09,0,0.13l-1.18,1.18C58.34,19.42,58.32,19.43,58.29,19.43z"/>
	<path class="st10" d="M70.36,14.43h-1.68c-0.05,0-0.09-0.04-0.09-0.09c0-0.05,0.04-0.09,0.09-0.09h1.68c0.05,0,0.09,0.04,0.09,0.09
		C70.45,14.39,70.41,14.43,70.36,14.43z"/>
	<path class="st10" d="M57.9,14.43h-1.68c-0.05,0-0.09-0.04-0.09-0.09c0-0.05,0.04-0.09,0.09-0.09h1.68c0.05,0,0.09,0.04,0.09,0.09
		C57.99,14.39,57.95,14.43,57.9,14.43z"/>
	<path class="st10" d="M68.29,19.43c-0.02,0-0.05-0.01-0.06-0.03l-1.19-1.19c-0.03-0.03-0.03-0.09,0-0.13
		c0.03-0.04,0.09-0.04,0.13,0c0,0,0,0,0,0l1.19,1.19c0.03,0.04,0.03,0.09,0,0.13C68.34,19.42,68.31,19.43,68.29,19.43L68.29,19.43z"
		/>
	<path class="st10" d="M59.48,10.62c-0.02,0-0.05-0.01-0.06-0.03l-1.19-1.19c-0.04-0.03-0.04-0.09,0-0.13c0,0,0,0,0,0
		c0.04-0.03,0.09-0.03,0.13,0l1.19,1.19c0.03,0.04,0.03,0.09,0,0.13C59.53,10.61,59.51,10.62,59.48,10.62z"/>
</g>
<g id="freepik--Birds--inject-166">
	<path class="st0" d="M73.25,37.18c0,0,0.83-0.21,1.08-0.12c0.25,0.08-0.17,0.38-0.17,0.38c0.15,0.1,0.26,0.24,0.33,0.41
		c0.12,0.29-0.41,0.17-0.41,0.17c0.09,0.11,0.09,0.27,0,0.37c-0.17,0.17-0.91-0.66-0.91-0.66s-0.54,0.33-1.04,0.29
		c-0.5-0.04-0.79-0.17-1.12-0.66c-0.17-0.27-0.36-0.52-0.58-0.75l-0.33-0.12l0.5-0.29c0,0,0.42-0.37,0.83-0.33
		c0.2,0.01,0.4,0.06,0.58,0.17c0,0,0.25-0.66,0.62-0.91c0.37-0.25,1.53-0.58,1.91-0.79s0.29,0.13,0.17,0.33
		c-0.12,0.21-0.5,0.37-0.66,0.46c-0.17,0.08,0.87,0.12,0.71,0.33c-0.17,0.21-0.79,0.29-0.79,0.29s0.58,0.21,0.46,0.37
		s-0.62,0.17-0.62,0.17s0.17,0.42-0.08,0.42h-0.26C73.45,36.68,73.58,37.26,73.25,37.18z"/>
	<path class="st10" d="M74.02,38.49L74.02,38.49c-0.24,0-0.7-0.48-0.87-0.66c-0.31,0.18-0.67,0.27-1.03,0.27
		c-0.5-0.04-0.83-0.16-1.19-0.7c-0.17-0.25-0.35-0.49-0.56-0.72l-0.31-0.12c-0.03-0.01-0.06-0.04-0.06-0.08
		c0-0.03,0.01-0.07,0.04-0.09l0.49-0.29c0.06-0.05,0.47-0.39,0.9-0.35c0.18,0.01,0.36,0.06,0.53,0.13c0.09-0.2,0.31-0.65,0.62-0.86
		c0.35-0.19,0.72-0.34,1.1-0.47c0.28-0.09,0.55-0.2,0.81-0.33c0.06-0.03,0.25-0.14,0.36-0.03c0.11,0.11-0.03,0.43-0.07,0.49
		c-0.14,0.18-0.33,0.32-0.54,0.41l0.05,0.01c0.3,0.06,0.5,0.11,0.55,0.23c0.02,0.05,0.01,0.11-0.03,0.15
		c-0.16,0.14-0.35,0.23-0.56,0.27c0.11,0.05,0.2,0.13,0.26,0.24c0.01,0.05,0,0.11-0.03,0.15c-0.11,0.15-0.4,0.18-0.57,0.2
		c0.04,0.11,0.03,0.23-0.02,0.33c-0.04,0.06-0.11,0.09-0.18,0.09h-0.14c0.01,0.08,0.01,0.17,0,0.25c0.26-0.07,0.53-0.08,0.8-0.05
		c0.07,0.02,0.13,0.07,0.14,0.15c0.02,0.11-0.09,0.23-0.18,0.32c0.12,0.1,0.21,0.23,0.27,0.38c0.04,0.07,0.04,0.16-0.02,0.23
		c-0.09,0.08-0.21,0.11-0.33,0.08c0.03,0.12,0,0.24-0.09,0.32C74.13,38.48,74.07,38.5,74.02,38.49z M73.17,37.63
		c0.03,0,0.05,0.01,0.07,0.03c0.33,0.36,0.7,0.68,0.79,0.66c0.1-0.1-0.01-0.24-0.01-0.25c-0.02-0.03-0.02-0.07,0-0.1
		c0.02-0.03,0.06-0.05,0.1-0.04c0.11,0.03,0.22,0.03,0.32,0l0,0c0-0.02,0-0.03-0.01-0.04c-0.06-0.15-0.16-0.28-0.29-0.37
		c-0.03-0.02-0.04-0.04-0.04-0.07c0-0.03,0.01-0.06,0.04-0.08c0.08-0.05,0.15-0.13,0.21-0.21H74.3c-0.13-0.04-0.53,0.02-0.84,0.08
		c-0.07,0.05-0.15,0.07-0.24,0.04c-0.04-0.01-0.07-0.05-0.07-0.09c0-0.04,0.03-0.08,0.07-0.09c0.02,0,0.07-0.02,0.14-0.03
		c0.03-0.12,0.03-0.24,0-0.36c-0.01-0.05,0.02-0.1,0.07-0.11c0.01,0,0.01,0,0.02,0h0.25c0.03,0,0.03,0,0.03-0.01
		c0.02-0.09,0.01-0.19-0.04-0.28c-0.01-0.03-0.01-0.06,0.01-0.08c0.02-0.02,0.05-0.04,0.08-0.04c0.18,0,0.48-0.04,0.55-0.13
		c-0.12-0.11-0.26-0.19-0.42-0.24c-0.05,0-0.09-0.05-0.08-0.1s0.05-0.09,0.1-0.08c0.22-0.03,0.59-0.12,0.72-0.24
		c-0.13-0.05-0.26-0.09-0.4-0.11c-0.23-0.05-0.31-0.06-0.33-0.15c-0.01-0.05,0.02-0.09,0.07-0.11l0.06-0.03
		c0.17-0.08,0.47-0.23,0.57-0.39c0.05-0.08,0.09-0.17,0.09-0.27c-0.05,0.01-0.09,0.03-0.14,0.06c-0.27,0.13-0.55,0.24-0.84,0.34
		c-0.37,0.12-0.72,0.27-1.07,0.45c-0.34,0.23-0.59,0.86-0.59,0.87c-0.01,0.03-0.03,0.05-0.06,0.06c-0.03,0.01-0.06,0-0.08-0.01
		c-0.16-0.09-0.35-0.14-0.54-0.15c-0.37-0.04-0.76,0.31-0.76,0.31s-0.01,0-0.01,0.01l-0.33,0.2l0.15,0.06
		c0.01,0,0.02,0.01,0.03,0.02c0.22,0.24,0.42,0.49,0.59,0.76c0.32,0.48,0.59,0.59,1.05,0.62c0.35,0,0.68-0.1,0.98-0.28
		C73.14,37.63,73.15,37.63,73.17,37.63L73.17,37.63z"/>
	<path class="st10" d="M72.01,36.02c0,0-0.33-0.66-0.17-1.08c0.17-0.41,1.7-1.49,1.66-1.08c-0.05,0.28-0.22,0.52-0.46,0.66
		c0,0,0.62-0.21,0.62-0.04v0.17c0,0-0.71,0.17-1.04,0.46C72.37,35.37,72.16,35.68,72.01,36.02z"/>
	<path class="st10" d="M72.01,36.11c-0.03,0-0.06-0.02-0.08-0.05c-0.01-0.03-0.35-0.7-0.17-1.15c0.15-0.38,1.38-1.3,1.71-1.22
		c0.08,0.02,0.13,0.1,0.12,0.18c-0.02,0.18-0.09,0.34-0.21,0.47c0.1-0.03,0.22-0.02,0.32,0.02c0.04,0.03,0.06,0.07,0.06,0.12v0.17
		c0,0.04-0.03,0.08-0.07,0.09c0,0-0.69,0.16-1,0.44c-0.25,0.26-0.45,0.56-0.6,0.89C72.07,36.09,72.04,36.11,72.01,36.11L72.01,36.11
		z M73.4,33.85c-0.24,0-1.34,0.78-1.48,1.12c-0.1,0.25,0,0.62,0.09,0.83c0.14-0.28,0.33-0.54,0.56-0.77c0.3-0.22,0.64-0.37,1-0.46
		v-0.07c-0.17,0.01-0.34,0.04-0.5,0.1c-0.05,0.01-0.1-0.01-0.11-0.06c-0.01-0.04,0-0.08,0.04-0.1C73.21,34.31,73.36,34.1,73.4,33.85
		L73.4,33.85z"/>
	<circle class="st10" cx="71.04" cy="36.34" r="0.12"/>
	<path class="st11" d="M72.7,37.61c-0.07,0.25-0.47,0.36-0.88,0.23s-0.69-0.43-0.61-0.68c0.07-0.25,0.47-0.36,0.88-0.23
		C72.5,37.06,72.78,37.36,72.7,37.61z"/>
	<path class="st10" d="M72.16,37.94c-0.12,0-0.24-0.02-0.36-0.05c-0.19-0.05-0.37-0.16-0.51-0.3c-0.17-0.14-0.2-0.39-0.06-0.57
		c0.07-0.09,0.17-0.14,0.28-0.15c0.4-0.08,0.81,0.04,1.1,0.33c0.17,0.14,0.2,0.39,0.06,0.57c-0.07,0.09-0.17,0.14-0.28,0.15
		C72.32,37.93,72.24,37.94,72.16,37.94z M71.75,36.92c-0.07,0-0.15,0.01-0.22,0.03c-0.13,0.02-0.24,0.11-0.28,0.23
		c-0.03,0.13,0.02,0.26,0.11,0.34c0.27,0.26,0.65,0.38,1.01,0.3c0.13-0.02,0.24-0.11,0.28-0.23l0,0c0.03-0.13-0.02-0.26-0.11-0.34
		c-0.13-0.13-0.29-0.23-0.47-0.28C71.97,36.94,71.86,36.92,71.75,36.92z"/>
	<path class="st0" d="M32,26.55c0,0-0.83-0.21-1.08-0.12c-0.25,0.08,0.17,0.38,0.17,0.38c-0.15,0.1-0.26,0.24-0.33,0.41
		c-0.13,0.29,0.41,0.17,0.41,0.17c-0.09,0.11-0.09,0.27,0,0.37c0.17,0.17,0.91-0.66,0.91-0.66s0.54,0.33,1.04,0.29
		c0.5-0.04,0.79-0.17,1.12-0.66c0.17-0.27,0.36-0.52,0.58-0.75l0.33-0.13l-0.5-0.29c0,0-0.42-0.37-0.83-0.33
		c-0.2,0.01-0.4,0.06-0.58,0.17c0,0-0.25-0.66-0.62-0.91c-0.37-0.25-1.53-0.58-1.91-0.79s-0.29,0.12-0.17,0.33
		c0.12,0.21,0.5,0.37,0.66,0.46s-0.87,0.12-0.71,0.33c0.17,0.21,0.79,0.29,0.79,0.29s-0.58,0.21-0.46,0.37
		c0.12,0.17,0.62,0.17,0.62,0.17s-0.17,0.42,0.08,0.42h0.25C31.79,26.05,31.67,26.63,32,26.55z"/>
	<path class="st10" d="M31.23,27.86c-0.05,0-0.09-0.02-0.12-0.05c-0.09-0.08-0.12-0.21-0.09-0.32c-0.12,0.02-0.24-0.01-0.33-0.08
		c-0.05-0.07-0.06-0.16-0.02-0.23c0.06-0.14,0.15-0.27,0.27-0.38c-0.1-0.08-0.2-0.2-0.18-0.32c0.01-0.07,0.07-0.13,0.14-0.15
		c0.27-0.03,0.54-0.02,0.8,0.05c-0.01-0.08-0.01-0.16,0-0.25h-0.14c-0.07,0-0.14-0.03-0.18-0.09c-0.05-0.1-0.06-0.22-0.02-0.33
		c-0.18-0.01-0.46-0.05-0.57-0.2c-0.03-0.04-0.04-0.1-0.03-0.15c0.06-0.11,0.15-0.19,0.26-0.24c-0.21-0.03-0.4-0.13-0.56-0.27
		c-0.04-0.04-0.05-0.1-0.03-0.15c0.04-0.12,0.25-0.17,0.55-0.23l0.05-0.01c-0.21-0.09-0.4-0.23-0.54-0.41
		c-0.03-0.06-0.2-0.35-0.07-0.48s0.29,0,0.36,0.03c0.26,0.13,0.53,0.23,0.81,0.33c0.38,0.12,0.75,0.28,1.1,0.47
		c0.31,0.21,0.54,0.66,0.62,0.86c0.17-0.07,0.35-0.12,0.53-0.13c0.42-0.04,0.83,0.29,0.9,0.35l0.49,0.29
		c0.03,0.02,0.05,0.05,0.04,0.09c0,0.03-0.03,0.06-0.06,0.08l-0.31,0.12c-0.21,0.22-0.39,0.46-0.56,0.72
		c-0.36,0.54-0.68,0.66-1.19,0.7c-0.36,0.01-0.72-0.09-1.03-0.27c-0.18,0.18-0.63,0.66-0.87,0.66L31.23,27.86z M31.17,27.29
		c0.03,0,0.06,0.02,0.08,0.04c0.02,0.03,0.02,0.07,0,0.1c-0.01,0.01-0.11,0.15,0,0.26c0.08,0.01,0.45-0.29,0.78-0.66
		c0.03-0.03,0.08-0.04,0.11-0.02c0.3,0.18,0.64,0.27,0.98,0.28c0.46-0.04,0.73-0.14,1.05-0.63c0.17-0.27,0.37-0.52,0.59-0.76
		c0.01-0.01,0.02-0.02,0.03-0.02l0.15-0.06l-0.35-0.19l-0.01-0.01c0,0-0.39-0.35-0.76-0.31c-0.19,0.01-0.37,0.06-0.54,0.15
		c-0.02,0.02-0.05,0.02-0.08,0.01c-0.03-0.01-0.05-0.03-0.06-0.05c0,0-0.24-0.64-0.59-0.87c-0.34-0.18-0.7-0.33-1.07-0.45
		c-0.29-0.09-0.57-0.21-0.84-0.34c-0.11-0.06-0.15-0.05-0.15-0.05c0.02,0.09,0.05,0.18,0.1,0.26c0.1,0.16,0.41,0.31,0.57,0.39
		l0.06,0.03c0.05,0.02,0.07,0.06,0.07,0.11c-0.01,0.09-0.1,0.11-0.33,0.15c-0.14,0.02-0.27,0.06-0.4,0.11
		c0.13,0.12,0.5,0.21,0.72,0.24c0.04,0.01,0.07,0.04,0.08,0.08c0,0.04-0.02,0.08-0.06,0.09c-0.16,0.04-0.3,0.13-0.42,0.24
		c0.07,0.08,0.36,0.12,0.55,0.12c0.03,0,0.06,0.01,0.08,0.04c0.02,0.03,0.02,0.06,0.01,0.08c-0.04,0.09-0.06,0.19-0.04,0.28
		c0,0,0,0.01,0.03,0.01h0.25c0.03,0,0.05,0.01,0.07,0.03c0.02,0.02,0.02,0.05,0.02,0.08c-0.03,0.12-0.03,0.24,0,0.36l0.14,0.03
		c0.04,0.01,0.07,0.05,0.07,0.09c0,0.04-0.03,0.08-0.07,0.09c-0.08,0.03-0.17,0.01-0.24-0.04c-0.31-0.07-0.7-0.13-0.84-0.08
		c-0.01,0-0.02,0.01-0.02,0.01c0.06,0.08,0.13,0.15,0.21,0.21c0.03,0.02,0.04,0.05,0.04,0.08c0,0.03-0.02,0.06-0.04,0.07
		c-0.13,0.09-0.23,0.21-0.29,0.36c-0.01,0.01-0.01,0.03-0.01,0.04c0.1,0.03,0.22,0.03,0.32,0L31.17,27.29z"/>
	<path class="st10" d="M33.25,25.39c0,0,0.33-0.66,0.17-1.08c-0.17-0.42-1.7-1.49-1.66-1.08c0.05,0.28,0.22,0.52,0.46,0.66
		c0,0-0.62-0.21-0.62-0.04v0.17c0,0,0.71,0.17,1.04,0.46C32.88,24.75,33.09,25.05,33.25,25.39z"/>
	<path class="st10" d="M33.25,25.48L33.25,25.48c-0.03,0-0.07-0.02-0.08-0.05c-0.15-0.33-0.35-0.62-0.6-0.88
		c-0.31-0.27-0.99-0.43-1-0.44c-0.04-0.01-0.07-0.04-0.07-0.09v-0.17c0-0.05,0.02-0.09,0.06-0.11c0.1-0.04,0.21-0.05,0.32-0.02
		c-0.11-0.13-0.19-0.3-0.21-0.47c-0.01-0.08,0.04-0.16,0.12-0.18c0.34-0.08,1.56,0.84,1.71,1.22c0.18,0.45-0.15,1.12-0.17,1.15
		C33.31,25.46,33.28,25.48,33.25,25.48z M31.68,23.95c0.36,0.09,0.7,0.24,1.01,0.46c0.23,0.22,0.41,0.48,0.56,0.77
		c0.08-0.21,0.19-0.58,0.09-0.83c-0.14-0.34-1.26-1.13-1.49-1.12c0.05,0.24,0.2,0.46,0.41,0.59c0.04,0.02,0.06,0.07,0.04,0.11
		c-0.02,0.04-0.07,0.06-0.11,0.05c-0.16-0.06-0.33-0.09-0.5-0.1V23.95z"/>
	<path class="st10" d="M34.09,25.71c0,0.07,0.06,0.12,0.12,0.12c0.07,0,0.12-0.06,0.12-0.12c0-0.07-0.06-0.12-0.12-0.12
		C34.15,25.59,34.09,25.64,34.09,25.71z"/>
	<path class="st11" d="M32.55,26.98c0.07,0.25,0.47,0.36,0.88,0.23c0.41-0.13,0.69-0.43,0.61-0.68c-0.07-0.25-0.47-0.36-0.88-0.23
		C32.75,26.43,32.48,26.73,32.55,26.98z"/>
	<path class="st10" d="M33.1,27.31c-0.29,0-0.54-0.12-0.59-0.32l0,0c-0.08-0.27,0.21-0.6,0.64-0.73s0.86-0.01,0.94,0.26
		c0.03,0.16-0.02,0.32-0.13,0.43c-0.14,0.14-0.32,0.25-0.51,0.3C33.33,27.29,33.22,27.31,33.1,27.31z M32.59,26.97
		c0.07,0.23,0.44,0.32,0.83,0.2c0.18-0.05,0.34-0.15,0.47-0.28c0.1-0.09,0.14-0.22,0.11-0.34c-0.07-0.23-0.44-0.32-0.83-0.2
		S32.53,26.74,32.59,26.97z"/>
</g>
<g id="freepik--Plants--inject-166">
	<path class="st0" d="M29.78,57.44c-1.18-1.73-2.76-3.15-4.61-4.15c-2.97-1.54-4.24-3.06-2.69-2.97c1.87,0.11,6.11,1.6,8.03,6.83
		C31.33,59.4,29.78,57.44,29.78,57.44"/>
	<path class="st10" d="M30.66,58.31c-0.26,0-0.7-0.5-0.95-0.82l0,0c-0.02-0.03-1.66-2.61-4.58-4.12c-2.16-1.12-3.55-2.29-3.39-2.85
		c0.06-0.22,0.31-0.31,0.74-0.29c1.98,0.11,6.21,1.7,8.11,6.88c0.34,0.92,0.27,1.11,0.15,1.18C30.71,58.31,30.68,58.31,30.66,58.31z
		 M29.85,57.38c0.33,0.42,0.71,0.77,0.8,0.75c0,0,0.07-0.13-0.23-0.96c-1.88-5.09-6.02-6.65-7.96-6.77
		c-0.33-0.02-0.53,0.04-0.56,0.16c-0.11,0.39,1.12,1.52,3.3,2.65C28.11,54.71,29.77,57.26,29.85,57.38z"/>
	<path class="st10" d="M29.68,56.84c-0.03,0-0.07-0.02-0.08-0.05c-0.01-0.03-1.51-2.96-4.25-4.36c-0.04-0.02-0.06-0.07-0.04-0.12
		c0,0,0,0,0,0c0.02-0.04,0.08-0.06,0.12-0.04c2.8,1.43,4.31,4.41,4.33,4.44c0.02,0.04,0.01,0.1-0.04,0.12c0,0,0,0,0,0
		C29.7,56.84,29.69,56.84,29.68,56.84z"/>
	<path class="st0" d="M31.56,59.24c-0.57-1.81-0.7-3.73-0.37-5.59c0.56-2.97,0.19-4.72-0.61-3.58c-0.97,1.39-2.28,5.23,0.36,9.52
		C32.08,61.44,31.56,59.23,31.56,59.24"/>
	<path class="st10" d="M31.57,60.42c-0.12,0-0.31-0.14-0.7-0.78c-2.62-4.25-1.38-8.15-0.36-9.62c0.23-0.33,0.44-0.45,0.63-0.37
		c0.49,0.21,0.55,1.86,0.14,4.02c-0.32,1.85-0.2,3.75,0.36,5.55c0,0,0,0.01,0,0.01c0.12,0.49,0.21,1.1-0.01,1.19
		C31.61,60.41,31.59,60.42,31.57,60.42z M31.03,49.8c-0.1,0-0.23,0.11-0.37,0.32c-1,1.44-2.2,5.25,0.36,9.42
		c0.41,0.67,0.54,0.7,0.56,0.7c0.05-0.06,0-0.52-0.1-0.98c-0.57-1.82-0.7-3.75-0.37-5.64c0.46-2.4,0.25-3.7-0.03-3.81
		C31.06,49.8,31.04,49.8,31.03,49.8L31.03,49.8z"/>
	<path class="st10" d="M31.13,58.88c-0.03,0-0.07-0.02-0.08-0.05c-0.01-0.03-1.29-2.78-0.74-5.57c0.01-0.05,0.06-0.08,0.11-0.07
		c0.05,0.01,0.08,0.06,0.07,0.11c-0.54,2.73,0.72,5.43,0.72,5.45c0.02,0.04,0,0.1-0.04,0.12c0,0,0,0,0,0
		C31.16,58.87,31.15,58.87,31.13,58.88z"/>
	<path class="st0" d="M29.9,56.12c-0.57-1.81-0.7-3.73-0.37-5.59c0.56-2.97,0.19-4.72-0.61-3.58c-0.97,1.39-2.28,5.23,0.36,9.52
		C30.42,58.32,29.89,56.12,29.9,56.12"/>
	<path class="st10" d="M29.91,57.3c-0.12,0-0.31-0.14-0.7-0.78c-2.62-4.25-1.38-8.15-0.36-9.62c0.23-0.33,0.44-0.45,0.63-0.37
		c0.49,0.21,0.54,1.86,0.14,4.02c-0.32,1.85-0.2,3.75,0.36,5.55v0.01c0.12,0.49,0.21,1.1-0.01,1.19
		C29.94,57.3,29.93,57.3,29.91,57.3z M29.37,46.69c-0.1,0-0.23,0.11-0.37,0.31c-1,1.44-2.2,5.25,0.36,9.42
		c0.41,0.67,0.54,0.7,0.56,0.7c0.05-0.06,0-0.52-0.1-0.98c-0.57-1.82-0.7-3.75-0.37-5.64c0.46-2.4,0.25-3.7-0.03-3.82
		C29.39,46.69,29.38,46.69,29.37,46.69L29.37,46.69z"/>
	<path class="st10" d="M29.68,56.84c-0.04,0-0.07-0.02-0.08-0.06c-0.01-0.04-1.49-3.85-0.94-6.65c0.01-0.05,0.06-0.08,0.11-0.07
		c0.05,0.01,0.08,0.06,0.07,0.11c0,0,0,0,0,0c-0.54,2.74,0.92,6.5,0.94,6.54c0.02,0.05,0,0.1-0.05,0.12c0,0,0,0,0,0
		C29.7,56.83,29.69,56.84,29.68,56.84z"/>
	<path class="st0" d="M67.2,54.19c1.18-1.73,2.76-3.15,4.61-4.15c2.97-1.54,4.24-3.06,2.69-2.97c-1.87,0.11-6.11,1.6-8.03,6.83
		C65.64,56.15,67.2,54.19,67.2,54.19"/>
	<path class="st10" d="M66.32,55.06c-0.03,0-0.06-0.01-0.08-0.02c-0.12-0.07-0.19-0.26,0.15-1.18c1.91-5.18,6.14-6.77,8.11-6.88
		c0.43-0.03,0.68,0.07,0.74,0.29c0.15,0.56-1.24,1.74-3.39,2.85c-2.91,1.51-4.56,4.09-4.58,4.12l0,0
		C67.02,54.56,66.58,55.06,66.32,55.06z M74.64,47.16c-0.04,0-0.08,0-0.12,0c-1.93,0.11-6.08,1.67-7.96,6.77
		c-0.31,0.83-0.24,0.96-0.23,0.97c0.09,0.02,0.46-0.34,0.8-0.76c0.08-0.12,1.74-2.67,4.64-4.18c2.18-1.13,3.41-2.25,3.3-2.65
		C75.04,47.2,74.89,47.15,74.64,47.16L74.64,47.16z M67.2,54.19L67.2,54.19z"/>
	<path class="st10" d="M67.3,53.59c-0.01,0-0.03,0-0.04-0.01c-0.04-0.02-0.06-0.08-0.04-0.12c0.01-0.03,1.53-3.01,4.33-4.44
		c0.04-0.02,0.1-0.01,0.12,0.04c0,0,0,0,0,0c0.02,0.04,0.01,0.1-0.04,0.12c-2.75,1.4-4.24,4.33-4.25,4.36
		C67.36,53.57,67.33,53.59,67.3,53.59z"/>
	<path class="st0" d="M65.41,55.99c0.57-1.81,0.7-3.73,0.37-5.59c-0.56-2.97-0.19-4.72,0.61-3.58c0.97,1.39,2.28,5.23-0.36,9.52
		C64.89,58.19,65.42,55.99,65.41,55.99"/>
	<path class="st10" d="M65.4,57.17c-0.02,0-0.04,0-0.06-0.01c-0.22-0.09-0.13-0.7-0.01-1.19c0,0,0,0,0-0.01
		c0.56-1.79,0.69-3.7,0.37-5.55c-0.41-2.16-0.36-3.81,0.14-4.01c0.19-0.08,0.4,0.04,0.63,0.37c1.02,1.47,2.26,5.37-0.36,9.62
		C65.71,57.03,65.52,57.17,65.4,57.17z M65.5,56.01c-0.11,0.46-0.15,0.92-0.09,0.98c0,0,0.13-0.03,0.54-0.7
		c2.57-4.17,1.36-7.99,0.36-9.42c-0.17-0.24-0.31-0.35-0.41-0.31c-0.28,0.12-0.49,1.41-0.03,3.81
		C66.19,52.26,66.07,54.19,65.5,56.01L65.5,56.01z"/>
	<path class="st10" d="M65.84,55.63c-0.01,0-0.03,0-0.04-0.01c-0.04-0.02-0.06-0.08-0.04-0.12c0.01-0.03,1.26-2.72,0.72-5.45
		c-0.01-0.05,0.02-0.09,0.07-0.11c0,0,0,0,0,0c0.05-0.01,0.1,0.02,0.11,0.07c0,0,0,0,0,0c0.55,2.79-0.72,5.54-0.74,5.57
		C65.9,55.61,65.87,55.63,65.84,55.63z"/>
	<path class="st0" d="M67.08,52.87c0.57-1.81,0.7-3.73,0.37-5.59c-0.56-2.97-0.19-4.72,0.61-3.58c0.97,1.39,2.28,5.23-0.36,9.52
		C66.56,55.08,67.08,52.87,67.08,52.87"/>
	<path class="st10" d="M67.07,54.06c-0.02,0-0.04,0-0.06-0.01c-0.22-0.09-0.13-0.7-0.01-1.19c0,0,0,0,0-0.01
		c0.56-1.79,0.69-3.69,0.37-5.55c-0.41-2.16-0.36-3.81,0.14-4.02c0.19-0.08,0.4,0.04,0.63,0.37c1.02,1.47,2.26,5.37-0.36,9.62
		C67.38,53.91,67.19,54.06,67.07,54.06z M67.17,52.9c-0.11,0.46-0.15,0.92-0.09,0.98c0,0,0.13-0.03,0.54-0.7
		c2.57-4.17,1.36-7.99,0.36-9.42c-0.17-0.24-0.31-0.35-0.41-0.31c-0.28,0.12-0.49,1.41-0.03,3.81
		C67.86,49.14,67.73,51.08,67.17,52.9z"/>
	<path class="st10" d="M67.3,53.59c-0.01,0-0.02,0-0.03,0c-0.05-0.02-0.07-0.07-0.05-0.11c0.01-0.04,1.47-3.81,0.94-6.54
		c-0.01-0.05,0.02-0.09,0.06-0.1c0,0,0,0,0.01,0c0.05-0.01,0.1,0.02,0.11,0.07c0,0,0,0,0,0c0.55,2.79-0.93,6.6-0.94,6.65
		C67.37,53.58,67.33,53.6,67.3,53.59z"/>
</g>
<g id="freepik--House--inject-166">
	<polygon class="st10" points="67.95,44.89 50.87,44.89 41.32,29.7 58.39,29.7 	"/>
	<path class="st10" d="M67.95,44.98H50.87c-0.03,0-0.06-0.02-0.08-0.04l-9.55-15.19c-0.02-0.03-0.02-0.06,0-0.09
		c0.02-0.03,0.05-0.04,0.08-0.04H58.4c0.03,0,0.06,0.02,0.08,0.04l9.55,15.19c0.02,0.03,0.02,0.06,0,0.09
		C68.01,44.96,67.98,44.98,67.95,44.98z M50.92,44.8h16.87l-9.44-15.01H41.47L50.92,44.8z"/>
	<rect x="30.99" y="44.37" class="st12" width="17.5" height="15.46"/>
	<path class="st10" d="M48.49,59.92h-17.5c-0.05,0-0.09-0.04-0.09-0.09V44.37c0-0.05,0.04-0.09,0.09-0.09h17.5
		c0.05,0,0.09,0.04,0.09,0.09v15.46C48.58,59.88,48.54,59.92,48.49,59.92z M31.08,59.74H48.4V44.46H31.08L31.08,59.74z"/>
	<polygon class="st11" points="66,59.83 48.49,59.83 48.49,44.37 57.39,30.22 66,44.37 	"/>
	<path class="st10" d="M66,59.92h-17.5c-0.05,0-0.09-0.04-0.09-0.09V44.37c0-0.02,0.01-0.03,0.01-0.05l8.9-14.15
		c0.02-0.03,0.04-0.04,0.08-0.04l0,0c0.03,0,0.06,0.02,0.08,0.04l8.61,14.15c0.01,0.01,0.01,0.03,0.01,0.05v15.46
		C66.09,59.88,66.05,59.92,66,59.92z M48.58,59.74h17.32V44.39l-8.52-14l-8.8,14L48.58,59.74z"/>
	<rect x="50.54" y="47.14" class="st12" width="1.75" height="5.25"/>
	<path class="st10" d="M52.29,52.48h-1.75c-0.05,0-0.09-0.04-0.09-0.09v-5.25c0-0.05,0.04-0.09,0.09-0.09h1.75
		c0.05,0,0.09,0.04,0.09,0.09v5.25C52.38,52.44,52.34,52.48,52.29,52.48z M50.63,52.3h1.57v-5.07h-1.57V52.3z"/>
	<rect x="52.29" y="47.14" class="st10" width="1.75" height="5.25"/>
	<path class="st10" d="M54.04,52.48h-1.75c-0.05,0-0.09-0.04-0.09-0.09v-5.25c0-0.05,0.04-0.09,0.09-0.09h1.75
		c0.05,0,0.09,0.04,0.09,0.09v5.25C54.13,52.44,54.09,52.48,54.04,52.48z M52.38,52.3h1.57v-5.07h-1.57V52.3z"/>
	<rect x="54.04" y="47.14" class="st12" width="1.75" height="5.25"/>
	<path class="st10" d="M55.79,52.48h-1.75c-0.05,0-0.09-0.04-0.09-0.09v-5.25c0-0.05,0.04-0.09,0.09-0.09h1.75
		c0.05,0,0.09,0.04,0.09,0.09v5.25C55.88,52.44,55.84,52.48,55.79,52.48z M54.13,52.3h1.57v-5.07h-1.57V52.3z"/>
	<rect x="42.81" y="47.14" class="st13" width="1.46" height="5.25"/>
	<path class="st10" d="M44.26,52.48h-1.46c-0.05,0-0.09-0.04-0.09-0.09v-5.25c0-0.05,0.04-0.09,0.09-0.09h1.46
		c0.05,0,0.09,0.04,0.09,0.09v5.25C44.35,52.44,44.31,52.48,44.26,52.48z M42.9,52.3h1.27v-5.07h-1.28L42.9,52.3z"/>
	<rect x="44.26" y="47.14" class="st10" width="1.46" height="5.25"/>
	<path class="st10" d="M45.72,52.48h-1.46c-0.05,0-0.09-0.04-0.09-0.09v-5.25c0-0.05,0.04-0.09,0.09-0.09h1.46
		c0.05,0,0.09,0.04,0.09,0.09v5.25C45.81,52.44,45.77,52.48,45.72,52.48z M44.35,52.3h1.28v-5.07h-1.28L44.35,52.3z"/>
	<rect x="45.72" y="47.14" class="st13" width="1.46" height="5.25"/>
	<path class="st10" d="M47.18,52.48h-1.46c-0.05,0-0.09-0.04-0.09-0.09v-5.25c0-0.05,0.04-0.09,0.09-0.09h1.46
		c0.05,0,0.09,0.04,0.09,0.09v5.25C47.27,52.44,47.23,52.48,47.18,52.48z M45.81,52.3h1.28v-5.07h-1.28V52.3z"/>
	<rect x="32.01" y="47.14" class="st13" width="1.46" height="5.25"/>
	<path class="st10" d="M33.47,52.48h-1.46c-0.05,0-0.09-0.04-0.09-0.09v-5.25c0-0.05,0.04-0.09,0.09-0.09h1.46
		c0.05,0,0.09,0.04,0.09,0.09v5.25C33.56,52.44,33.52,52.48,33.47,52.48z M32.1,52.3h1.29v-5.07h-1.28L32.1,52.3z"/>
	<rect x="33.47" y="47.14" class="st10" width="1.46" height="5.25"/>
	<path class="st10" d="M34.93,52.48h-1.46c-0.05,0-0.09-0.04-0.09-0.09v-5.25c0-0.05,0.04-0.09,0.09-0.09h1.46
		c0.05,0,0.09,0.04,0.09,0.09v5.25C35.02,52.44,34.98,52.48,34.93,52.48z M33.56,52.3h1.28v-5.07h-1.27L33.56,52.3z"/>
	<rect x="34.93" y="47.14" class="st13" width="1.46" height="5.25"/>
	<path class="st10" d="M36.39,52.48h-1.46c-0.05,0-0.09-0.04-0.09-0.09v-5.25c0-0.05,0.04-0.09,0.09-0.09h1.46
		c0.05,0,0.09,0.04,0.09,0.09v5.25C36.48,52.44,36.44,52.48,36.39,52.48z M35.02,52.3h1.28v-5.07h-1.28V52.3z"/>
	<rect x="59.43" y="47.14" class="st12" width="1.75" height="5.25"/>
	<path class="st10" d="M61.18,52.48h-1.74c-0.05,0-0.09-0.04-0.09-0.09v-5.25c0-0.05,0.04-0.09,0.09-0.09h1.75
		c0.05,0,0.09,0.04,0.09,0.09v5.25C61.28,52.44,61.24,52.48,61.18,52.48C61.19,52.48,61.19,52.48,61.18,52.48z M59.52,52.3h1.57
		v-5.07h-1.57V52.3z"/>
	<rect x="61.18" y="47.14" class="st10" width="1.75" height="5.25"/>
	<path class="st10" d="M62.93,52.48h-1.75c-0.05,0-0.09-0.04-0.09-0.09v-5.25c0-0.05,0.04-0.09,0.09-0.09h1.75
		c0.05,0,0.09,0.04,0.09,0.09v5.25C63.02,52.44,62.98,52.48,62.93,52.48z M61.27,52.3h1.58v-5.07h-1.57L61.27,52.3z"/>
	<rect x="62.93" y="47.14" class="st12" width="1.75" height="5.25"/>
	<path class="st10" d="M64.69,52.48h-1.75c-0.05,0-0.09-0.04-0.09-0.09v-5.25c0-0.05,0.04-0.09,0.09-0.09h1.75
		c0.05,0,0.09,0.04,0.09,0.09v5.25C64.78,52.44,64.74,52.48,64.69,52.48z M63.02,52.3h1.57v-5.07h-1.56L63.02,52.3z"/>
	<rect x="55.93" y="38.53" class="st12" width="1.17" height="3.21"/>
	<path class="st10" d="M57.1,41.83h-1.17c-0.05,0-0.09-0.04-0.09-0.09v-3.21c0-0.05,0.04-0.09,0.09-0.09h1.17
		c0.05,0,0.09,0.04,0.09,0.09v3.21C57.19,41.79,57.15,41.83,57.1,41.83z M56.03,41.65h0.99v-3.03h-0.99V41.65z"/>
	<rect x="57.1" y="38.53" class="st10" width="1.17" height="3.21"/>
	<path class="st10" d="M58.27,41.83H57.1c-0.05,0-0.09-0.04-0.09-0.09v-3.21c0-0.05,0.04-0.09,0.09-0.09h1.17
		c0.05,0,0.09,0.04,0.09,0.09v3.21C58.36,41.79,58.32,41.83,58.27,41.83C58.27,41.83,58.27,41.83,58.27,41.83z M57.19,41.65h0.99
		v-3.03H57.2L57.19,41.65z"/>
	<rect x="58.27" y="38.53" class="st12" width="1.17" height="3.21"/>
	<path class="st10" d="M59.44,41.83h-1.17c-0.05,0-0.09-0.04-0.09-0.09v-3.21c0-0.05,0.04-0.09,0.09-0.09h1.17
		c0.05,0,0.09,0.04,0.09,0.09v3.21C59.53,41.79,59.49,41.83,59.44,41.83z M58.36,41.65h0.99v-3.03h-0.99V41.65z"/>
	<polygon class="st0" points="30.02,44.89 48.81,44.89 58.37,29.7 39.57,29.7 	"/>
	<path class="st10" d="M48.81,44.98h-18.8c-0.03,0-0.06-0.02-0.08-0.04c-0.02-0.03-0.02-0.06,0-0.09l9.56-15.19
		c0.02-0.03,0.04-0.04,0.08-0.04h18.79c0.03,0,0.06,0.02,0.08,0.04c0.02,0.03,0.02,0.06,0,0.09l-9.55,15.19
		C48.87,44.96,48.84,44.98,48.81,44.98z M30.18,44.8h18.58l9.44-15.01H39.62L30.18,44.8z"/>
	<rect x="37.27" y="36.56" class="st12" width="7.42" height="4.91"/>
	<path class="st10" d="M44.69,41.56h-7.42c-0.05,0-0.09-0.04-0.09-0.09v-4.91c0-0.05,0.04-0.09,0.09-0.09h7.42
		c0.05,0,0.09,0.04,0.09,0.09v4.91C44.78,41.52,44.74,41.56,44.69,41.56z M37.36,41.38h7.24v-4.73h-7.24V41.38z"/>
	<polygon class="st11" points="44.69,36.56 49.82,33.04 44.69,41.47 	"/>
	<path class="st10" d="M44.69,41.56h-0.03c-0.04-0.01-0.06-0.05-0.06-0.09v-4.92c0-0.03,0.01-0.06,0.04-0.07l5.13-3.52
		c0.03-0.03,0.08-0.03,0.11,0c0.03,0.03,0.04,0.08,0.01,0.11l-5.13,8.43C44.75,41.54,44.72,41.56,44.69,41.56z M44.78,36.61v4.54
		l4.74-7.8L44.78,36.61z"/>
	<polygon class="st0" points="36.67,36.72 44.45,36.72 49.82,33.04 42.05,33.04 	"/>
	<path class="st10" d="M44.45,36.81h-7.77c-0.04,0-0.07-0.03-0.09-0.06c-0.01-0.04,0-0.08,0.04-0.1L42,32.96
		c0.01-0.01,0.03-0.02,0.05-0.02h7.77c0.05,0,0.09,0.04,0.09,0.09c0,0.03-0.01,0.06-0.04,0.07L44.5,36.8
		C44.48,36.81,44.47,36.81,44.45,36.81z M36.96,36.63h7.46l5.11-3.51h-7.45L36.96,36.63z"/>
	<rect x="39.09" y="37.6" class="st13" width="1.17" height="3.21"/>
	<path class="st10" d="M40.25,40.9h-1.17c-0.05,0-0.09-0.04-0.09-0.09V37.6c0-0.05,0.04-0.09,0.09-0.09h1.17
		c0.05,0,0.09,0.04,0.09,0.09v3.21C40.34,40.86,40.3,40.9,40.25,40.9z M39.17,40.72h0.99v-3.03h-0.99V40.72z"/>
	<rect x="40.25" y="37.6" class="st10" width="1.17" height="3.21"/>
	<path class="st10" d="M41.42,40.9h-1.17c-0.05,0-0.09-0.04-0.09-0.09V37.6c0-0.05,0.04-0.09,0.09-0.09h1.17
		c0.05,0,0.09,0.04,0.09,0.09v3.21C41.51,40.86,41.47,40.9,41.42,40.9z M40.34,40.72h0.99v-3.03h-0.99V40.72z"/>
	<rect x="41.42" y="37.6" class="st13" width="1.17" height="3.21"/>
	<path class="st10" d="M42.59,40.9h-1.17c-0.05,0-0.09-0.04-0.09-0.09V37.6c0-0.05,0.04-0.09,0.09-0.09h1.17
		c0.05,0,0.09,0.04,0.09,0.09v3.21C42.68,40.86,42.64,40.9,42.59,40.9z M41.51,40.72h0.99v-3.03h-0.98L41.51,40.72z"/>
	<polygon class="st11" points="53.84,27.39 53.19,27.39 53.19,32.16 53.84,31.1 	"/>
	<path class="st10" d="M53.19,32.25h-0.02c-0.04-0.01-0.07-0.05-0.07-0.09v-4.77c0-0.05,0.04-0.09,0.09-0.09h0.65
		c0.05,0,0.09,0.04,0.09,0.09v3.71c0,0.02-0.01,0.03-0.01,0.05l-0.65,1.05C53.25,32.23,53.22,32.25,53.19,32.25z M53.28,27.48v4.36
		l0.47-0.76v-3.59L53.28,27.48z"/>
	<rect x="51.29" y="27.39" class="st12" width="1.93" height="4.77"/>
	<path class="st10" d="M53.22,32.25h-1.93c-0.05,0-0.09-0.04-0.09-0.09v-4.77c0-0.05,0.04-0.09,0.09-0.09h1.93
		c0.05,0,0.09,0.04,0.09,0.09v4.77C53.31,32.21,53.27,32.25,53.22,32.25L53.22,32.25z M51.38,32.07h1.75v-4.59h-1.75V32.07z"/>
	<rect x="37.5" y="48.02" class="st10" width="4.49" height="11.81"/>
	<path class="st10" d="M41.99,59.92H37.5c-0.05,0-0.09-0.04-0.09-0.09V48.02c0-0.05,0.04-0.09,0.09-0.09h4.49
		c0.05,0,0.09,0.04,0.09,0.09v11.81C42.08,59.88,42.04,59.92,41.99,59.92z M37.59,59.74h4.31V48.11h-4.31V59.74z"/>
	<path class="st11" d="M41.75,53.91c0-0.22-0.18-0.4-0.4-0.4c-0.22,0-0.4,0.18-0.4,0.4s0.18,0.4,0.4,0.4l0,0
		C41.57,54.31,41.75,54.13,41.75,53.91z"/>
	<path class="st10" d="M41.35,54.4c-0.27,0-0.49-0.22-0.49-0.49c0-0.27,0.22-0.49,0.49-0.49c0.27,0,0.49,0.22,0.49,0.49c0,0,0,0,0,0
		C41.84,54.18,41.62,54.4,41.35,54.4z M41.35,53.6c-0.17,0-0.31,0.14-0.31,0.31c0,0.17,0.14,0.31,0.31,0.31
		c0.17,0,0.31-0.14,0.31-0.31c0,0,0,0,0,0C41.66,53.74,41.53,53.6,41.35,53.6C41.36,53.6,41.35,53.6,41.35,53.6z"/>
</g>
<g id="freepik--Hand--inject-166">
	<path class="st11" d="M30.06,57.36c0,0-3.76-2.06-7.27-2.43s-5.55,1.26-5.53,1.97s2.46,0.77,2.92,0.88
		c0.46,0.12,3.29-0.66,7.46,0.33s4.71,1.19,4.71,1.19L30.06,57.36z"/>
	<path class="st10" d="M32.34,59.38c-0.01,0-0.02,0-0.03,0c-0.02,0-0.6-0.22-4.69-1.19c-2.17-0.51-4.42-0.63-6.63-0.36
		c-0.27,0.05-0.55,0.06-0.83,0.04c-0.19-0.04-0.39-0.06-0.59-0.08c-0.95-0.1-2.38-0.26-2.4-0.89c0-0.24,0.17-0.53,0.49-0.82
		c0.84-0.8,2.64-1.51,5.14-1.25c3.49,0.38,7.27,2.43,7.31,2.45l0.01,0.01l2.28,1.93c0.04,0.03,0.04,0.09,0.01,0.13
		C32.38,59.37,32.36,59.38,32.34,59.38L32.34,59.38z M23.33,57.5c1.46,0,2.91,0.17,4.33,0.51c2.57,0.61,3.76,0.92,4.3,1.08
		l-1.94-1.65c-0.19-0.11-3.86-2.06-7.23-2.43c-2.44-0.27-4.19,0.44-5,1.19c-0.27,0.25-0.43,0.5-0.43,0.68
		c0.01,0.47,1.46,0.63,2.24,0.72c0.2,0.02,0.41,0.05,0.61,0.08c0.26,0.01,0.51,0,0.77-0.04C21.75,57.55,22.54,57.5,23.33,57.5z"/>
	<path class="st11" d="M28.49,57.31c0,0-3.93-1.73-7.46-1.81s-5.42,1.73-5.34,2.43s2.52,0.55,2.98,0.63s3.22-0.95,7.46-0.31
		c4.24,0.64,4.79,0.79,4.79,0.79L28.49,57.31z"/>
	<path class="st10" d="M30.92,59.13H30.9c-0.02,0-0.62-0.17-4.78-0.78c-2.21-0.32-4.45-0.25-6.64,0.2
		c-0.27,0.07-0.55,0.11-0.82,0.11c-0.1-0.02-0.33-0.02-0.59-0.03c-0.95-0.02-2.4-0.06-2.47-0.68c-0.03-0.23,0.12-0.54,0.41-0.86
		c0.78-0.85,2.5-1.74,5.02-1.68c3.51,0.08,7.45,1.8,7.49,1.81l0.02,0.01l2.43,1.73c0.04,0.02,0.05,0.07,0.03,0.11
		C30.99,59.11,30.96,59.13,30.92,59.13z M23.38,57.96c0.93,0,1.85,0.06,2.77,0.2c2.62,0.39,3.83,0.6,4.37,0.7l-2.08-1.47
		c-0.2-0.09-4.02-1.72-7.42-1.8c-2.46-0.06-4.13,0.8-4.88,1.62c-0.25,0.27-0.38,0.54-0.36,0.72c0.05,0.46,1.51,0.5,2.29,0.52
		c0.21,0,0.41,0.01,0.62,0.03c0.26-0.01,0.51-0.05,0.76-0.11C20.75,58.1,22.06,57.96,23.38,57.96L23.38,57.96z"/>
	<path class="st11" d="M78.68,55.86l-5.45-1.47c0,0-3.86-3.06-8.52-2.73c-4.66,0.34-8.86,2.16-10.22,3.18
		c-1.36,1.02-3.07,2.04-3.41,2.27c-0.35,0.23-5-1.02-7.5,0c-2.5,1.02-4.43,3.07-4.43,3.07S28.58,57,25.97,56.54
		c-2.61-0.45-5.68-0.23-7.84,1.36s-1.7,2.61-0.55,2.84c1.14,0.23,1.36-0.91,7.61,0.79s13.85,6.14,16.91,7.84
		c3.07,1.69,8.17,4.09,11.59,3.07s12.72-4.54,14.88-4.54c2.16,0,9.09,0.45,9.09,0.45L78.68,55.86z"/>
	<path class="st10" d="M51.86,72.78c-3.09,0-6.91-1.72-9.8-3.32l-0.86-0.48c-3.35-1.88-10.32-5.78-16.04-7.35
		c-4.47-1.22-5.85-0.98-6.68-0.83c-0.3,0.07-0.62,0.09-0.93,0.04c-0.55-0.11-0.92-0.4-1-0.79c-0.1-0.42,0.1-1.15,1.54-2.22
		c1.92-1.42,4.8-1.92,7.9-1.38c2.49,0.43,12.32,3.38,13.13,3.62c0.29-0.29,2.13-2.11,4.42-3.05c1.75-0.72,4.52-0.33,6.18-0.11
		c0.59,0.08,1.21,0.17,1.3,0.12s0.22-0.14,0.41-0.26c0.68-0.43,1.93-1.21,2.99-2.01c1.46-1.09,5.73-2.87,10.27-3.2
		c4.49-0.33,8.3,2.53,8.57,2.73l5.43,1.47c0.04,0.01,0.07,0.05,0.06,0.09l-1.02,12.49c0,0.05-0.04,0.09-0.09,0.08c0,0,0,0,0,0
		c-0.07,0-6.95-0.45-9.08-0.45c-1.48,0-6.43,1.7-10.41,3.05c-1.82,0.63-3.39,1.16-4.44,1.48C53.11,72.69,52.49,72.78,51.86,72.78z
		 M19.77,60.49c1.01,0,2.62,0.19,5.43,0.96c5.73,1.56,12.72,5.48,16.08,7.37c0.32,0.18,0.61,0.34,0.86,0.48
		c3.47,1.93,8.29,4.03,11.51,3.05c1.05-0.31,2.62-0.85,4.44-1.47c3.99-1.37,8.96-3.07,10.47-3.07c2,0,8.19,0.4,9,0.45l1.01-12.33
		l-5.38-1.46c-0.01,0-0.02-0.01-0.03-0.02c-0.04-0.03-3.89-3.04-8.46-2.71c-4.5,0.33-8.73,2.08-10.17,3.16
		c-1.07,0.8-2.34,1.59-3.01,2.02c-0.19,0.12-0.33,0.21-0.4,0.26c-0.13,0.09-0.51,0.04-1.42-0.09c-1.64-0.22-4.38-0.6-6.09,0.1
		c-2.45,1-4.38,3.03-4.4,3.05c-0.02,0.02-0.06,0.03-0.09,0.02c-0.11-0.03-10.59-3.18-13.16-3.63c-3.05-0.54-5.89-0.04-7.77,1.35
		c-1.44,1.06-1.53,1.73-1.47,2.03s0.39,0.55,0.86,0.65c0.29,0.04,0.58,0.03,0.86-0.04C18.89,60.53,19.33,60.49,19.77,60.49z"/>
	<polygon class="st10" points="75.71,63.37 71.02,67.87 77.65,68.35 	"/>
	<path class="st10" d="M77.65,68.44L77.65,68.44l-6.63-0.48c-0.04,0-0.07-0.03-0.08-0.06c-0.01-0.03,0-0.07,0.02-0.1l4.69-4.49
		c0.04-0.03,0.1-0.03,0.13,0.01c0.01,0.01,0.01,0.02,0.02,0.03l1.94,4.98c0.01,0.03,0.01,0.06-0.01,0.09
		C77.71,68.43,77.68,68.44,77.65,68.44z M71.23,67.79l6.29,0.46l-1.85-4.72L71.23,67.79z"/>
	<path class="st10" d="M39.82,64.24c-0.75,0-1.21-0.22-1.37-0.86c-0.26-1.13-0.03-2.31,0.63-3.26c0.03-0.04,0.09-0.04,0.13-0.01
		c0.03,0.03,0.04,0.08,0.02,0.12c-0.01,0.01-1.02,1.37-0.59,3.11c0.25,1,1.35,0.82,3.82,0.33c0.8-0.16,1.06-0.3,1.29-0.42
		c0.45-0.24,0.75-0.4,4.38-0.45c3.98-0.06,8.08-0.15,10.28-0.2c0.83-0.02,1.33-0.03,1.42-0.03c0.05,0,0.09,0.04,0.09,0.09
		c0,0.05-0.04,0.09-0.09,0.09c-0.09,0-0.61,0.01-1.41,0.03c-2.2,0.05-6.31,0.15-10.28,0.2c-3.59,0.05-3.87,0.2-4.3,0.43
		c-0.42,0.22-0.87,0.37-1.33,0.43C41.38,64.06,40.49,64.24,39.82,64.24z"/>
	<path class="st10" d="M39.11,64.12H39.1c-0.05-0.01-0.08-0.05-0.08-0.1c0,0,0,0,0,0c0.11-0.52,0.45-0.97,0.91-1.22
		c0.06-0.03,1.34-0.69,2.17-0.69c0.56,0.02,1.07,0.34,1.33,0.84c0.09,0.14,0.09,0.33,0,0.47c-0.03,0.04-0.09,0.04-0.13,0.01
		c-0.04-0.03-0.04-0.09-0.01-0.13c0.04-0.05,0.04-0.16-0.02-0.28c-0.23-0.43-0.68-0.71-1.17-0.73c-0.79,0-2.07,0.66-2.09,0.67
		c-0.42,0.23-0.72,0.63-0.82,1.09C39.2,64.09,39.16,64.12,39.11,64.12z"/>
	<path class="st10" d="M46.17,62.76c-0.05,0-0.09-0.04-0.09-0.09v-0.97c0-0.05,0.04-0.09,0.09-0.09c0.05,0,0.09,0.04,0.09,0.09v0.97
		C46.26,62.72,46.22,62.76,46.17,62.76z"/>
	<path class="st10" d="M46.7,62.23h-0.02c-0.05-0.01-0.08-0.05-0.08-0.1c0,0,0,0,0,0c0.06-0.44,0.05-0.89-0.05-1.32
		c-0.01-0.05,0.02-0.1,0.06-0.11c0.05-0.01,0.1,0.02,0.11,0.06c0.1,0.46,0.12,0.93,0.05,1.39C46.78,62.19,46.74,62.23,46.7,62.23z"
		/>
	<path class="st0" d="M76.13,53.6h7.32l0,0v19.99l0,0h-7.32c-0.45,0-0.81-0.36-0.81-0.81V54.41C75.32,53.96,75.68,53.6,76.13,53.6z"
		/>
	<path class="st10" d="M83.45,73.68h-7.32c-0.5,0-0.9-0.4-0.9-0.9V54.41c0-0.5,0.4-0.9,0.9-0.9h7.32c0.05,0,0.09,0.04,0.09,0.09
		v19.99C83.54,73.64,83.5,73.68,83.45,73.68z M76.13,53.69c-0.4,0-0.72,0.32-0.72,0.72v18.38c0,0.4,0.32,0.72,0.72,0.72h7.23V53.69
		H76.13z"/>
	<path class="st0" d="M83.51,52.57h12.97l0,0v22.58l0,0H83.51c-0.34,0-0.61-0.27-0.61-0.61l0,0V53.19
		C82.9,52.85,83.17,52.57,83.51,52.57C83.51,52.57,83.51,52.57,83.51,52.57z"/>
	<path class="st10" d="M96.48,75.24H83.51c-0.39,0-0.7-0.31-0.7-0.7V53.19c0-0.39,0.32-0.7,0.7-0.7h12.97
		c0.05,0,0.09,0.04,0.09,0.09v22.58C96.57,75.2,96.53,75.24,96.48,75.24z M83.51,52.66c-0.29,0-0.52,0.23-0.52,0.52c0,0,0,0,0,0
		v21.35c0,0.29,0.23,0.52,0.52,0.52c0,0,0,0,0,0h12.88v-22.4H83.51z"/>
	<path class="st10" d="M82.49,55.52h-6.05c-0.05,0-0.09-0.04-0.09-0.09c0-0.05,0.04-0.09,0.09-0.09h6.05c0.05,0,0.09,0.04,0.09,0.09
		C82.58,55.48,82.54,55.52,82.49,55.52z"/>
	<path class="st10" d="M82.41,57.89h-6.15c-0.05,0-0.09-0.04-0.09-0.09c0-0.05,0.04-0.09,0.09-0.09h6.15c0.05,0,0.09,0.04,0.09,0.09
		C82.5,57.85,82.46,57.89,82.41,57.89z"/>
	<path class="st10" d="M80.25,62.21h-4.2c-0.05,0-0.09-0.04-0.09-0.09c0-0.05,0.04-0.09,0.09-0.09h4.2c0.05,0,0.09,0.04,0.09,0.09
		C80.34,62.17,80.3,62.21,80.25,62.21z"/>
	<path class="st10" d="M82.41,62.21h-1.4c-0.05,0-0.09-0.04-0.09-0.09c0-0.05,0.04-0.09,0.09-0.09h1.4c0.05,0,0.09,0.04,0.09,0.09
		C82.5,62.17,82.46,62.21,82.41,62.21z"/>
</g>
</svg>
